<?xml version="1.0" encoding="UTF-8" standalone="no"?>
<!-- Created with Inkscape (http://www.inkscape.org/) -->

<svg
   xmlns:dc="http://purl.org/dc/elements/1.1/"
   xmlns:cc="http://creativecommons.org/ns#"
   xmlns:rdf="http://www.w3.org/1999/02/22-rdf-syntax-ns#"
   xmlns:svg="http://www.w3.org/2000/svg"
   xmlns="http://www.w3.org/2000/svg"
   xmlns:sodipodi="http://sodipodi.sourceforge.net/DTD/sodipodi-0.dtd"
   xmlns:inkscape="http://www.inkscape.org/namespaces/inkscape"
   width="2161.4172"
   height="1427.9528"
   id="svg2"
   version="1.1"
   inkscape:version="0.48.4 r9939"
   sodipodi:docname="floor.svg">
  <defs
     id="defs4" />
  <sodipodi:namedview
     id="base"
     pagecolor="#ffffff"
     bordercolor="#666666"
     borderopacity="1.0"
     inkscape:pageopacity="0.0"
     inkscape:pageshadow="2"
     inkscape:zoom="0.22627417"
     inkscape:cx="-1079.0499"
     inkscape:cy="1809.1461"
     inkscape:document-units="px"
     inkscape:current-layer="svg2"
     showgrid="false"
     inkscape:window-width="2560"
     inkscape:window-height="1375"
     inkscape:window-x="0"
     inkscape:window-y="0"
     inkscape:window-maximized="1"
     units="mm" />
  <metadata
     id="metadata7">
    <rdf:RDF>
      <cc:Work
         rdf:about="">
        <dc:format>image/svg+xml</dc:format>
        <dc:type
           rdf:resource="http://purl.org/dc/dcmitype/StillImage" />
        <dc:title />
      </cc:Work>
    </rdf:RDF>
  </metadata>
  <g
     inkscape:label="Layer 1"
     inkscape:groupmode="layer"
     id="layer1"
     transform="translate(0,375.59053)" />
  <path
     style="fill:none;stroke:#ff0000;stroke-width:1;stroke-linecap:butt;stroke-linejoin:miter;stroke-miterlimit:4;stroke-opacity:1;stroke-dasharray:none;fill-opacity:1"
     d="M 1979.0625 39.625 C 1978.7707 39.625 1978.4789 39.646774 1978.1875 39.65625 L 29.65625 39.65625 L 29.65625 189.1875 L 91.875 189.1875 L 91.875 337.28125 L 29.65625 337.28125 L 29.65625 486.8125 L 91.875 486.8125 L 91.875 634.90625 L 29.65625 634.90625 L 29.65625 784.4375 L 91.875 784.4375 L 91.875 932.5625 L 29.65625 932.5625 L 29.65625 1082.0938 L 91.875 1082.0938 L 91.875 1230.1875 L 29.65625 1230.1875 L 29.65625 1379.7188 L 1979.0625 1379.7188 C 1979.1042 1379.7188 1979.1458 1379.7189 1979.1875 1379.7188 C 2052.5051 1379.3782 2111.9375 1079.5358 2111.9375 709.6875 C 2111.9375 339.62902 2052.4376 39.625 1979.0625 39.625 z "
     id="1018" />
</svg>
