solid OpenSCAD_Model
  facet normal 1 -0 0
    outer loop
      vertex -51.45 -52.95 20
      vertex -51.45 -17.95 8
      vertex -51.45 -17.95 20
    endloop
  endfacet
  facet normal 1 0 0
    outer loop
      vertex -51.45 -17.95 8
      vertex -51.45 -52.95 20
      vertex -51.45 -52.95 8
    endloop
  endfacet
  facet normal 0 0 -1
    outer loop
      vertex -51.45 -52.95 20
      vertex -47.95 -17.95 20
      vertex -47.95 -52.95 20
    endloop
  endfacet
  facet normal -0 0 -1
    outer loop
      vertex -47.95 -17.95 20
      vertex -51.45 -52.95 20
      vertex -51.45 -17.95 20
    endloop
  endfacet
  facet normal 1 0 0
    outer loop
      vertex -47.95 -29.95 39
      vertex -47.95 -17.95 49
      vertex -47.95 -29.95 47
    endloop
  endfacet
  facet normal 1 0 0
    outer loop
      vertex -47.95 -17.95 49
      vertex -47.95 -40.95 47
      vertex -47.95 -29.95 47
    endloop
  endfacet
  facet normal 1 -0 0
    outer loop
      vertex -47.95 -45.5427 39.6338
      vertex -47.95 -40.95 39
      vertex -47.95 -40.95 47
    endloop
  endfacet
  facet normal 1 0 0
    outer loop
      vertex -47.95 -40.95 39
      vertex -47.95 -42.7599 37.1684
      vertex -47.95 -42.5292 35.2679
    endloop
  endfacet
  facet normal 1 0 0
    outer loop
      vertex -47.95 -40.95 39
      vertex -47.95 -43.8475 38.744
      vertex -47.95 -42.7599 37.1684
    endloop
  endfacet
  facet normal 1 0 0
    outer loop
      vertex -47.95 -40.95 39
      vertex -47.95 -45.5427 39.6338
      vertex -47.95 -43.8475 38.744
    endloop
  endfacet
  facet normal 1 0 0
    outer loop
      vertex -47.95 -40.95 47
      vertex -47.95 -47.4573 39.6338
      vertex -47.95 -45.5427 39.6338
    endloop
  endfacet
  facet normal 1 0 0
    outer loop
      vertex -47.95 -52.95 49
      vertex -47.95 -47.4573 39.6338
      vertex -47.95 -40.95 47
    endloop
  endfacet
  facet normal 1 0 0
    outer loop
      vertex -47.95 -50.2401 37.1684
      vertex -47.95 -52.95 49
      vertex -47.95 -50.4708 35.2679
    endloop
  endfacet
  facet normal 1 0 0
    outer loop
      vertex -47.95 -49.1525 38.744
      vertex -47.95 -52.95 49
      vertex -47.95 -50.2401 37.1684
    endloop
  endfacet
  facet normal 1 0 0
    outer loop
      vertex -47.95 -47.4573 39.6338
      vertex -47.95 -52.95 49
      vertex -47.95 -49.1525 38.744
    endloop
  endfacet
  facet normal 1 -0 0
    outer loop
      vertex -47.95 -52.95 49
      vertex -47.95 -40.95 47
      vertex -47.95 -17.95 49
    endloop
  endfacet
  facet normal 1 0 0
    outer loop
      vertex -47.95 -17.95 49
      vertex -47.95 -29.95 39
      vertex -47.95 -17.95 21
    endloop
  endfacet
  facet normal 1 0 0
    outer loop
      vertex -47.95 -42.5292 35.2679
      vertex -47.95 -29.95 39
      vertex -47.95 -40.95 39
    endloop
  endfacet
  facet normal 1 0 0
    outer loop
      vertex -47.95 -43.2081 33.4777
      vertex -47.95 -29.95 39
      vertex -47.95 -42.5292 35.2679
    endloop
  endfacet
  facet normal 1 0 0
    outer loop
      vertex -47.95 -29.95 39
      vertex -47.95 -43.2081 33.4777
      vertex -47.95 -17.95 21
    endloop
  endfacet
  facet normal 1 -0 0
    outer loop
      vertex -47.95 -44.6411 32.2082
      vertex -47.95 -17.95 21
      vertex -47.95 -43.2081 33.4777
    endloop
  endfacet
  facet normal 1 0 0
    outer loop
      vertex -47.95 -52.95 21
      vertex -47.95 -44.6411 32.2082
      vertex -47.95 -46.5 31.75
    endloop
  endfacet
  facet normal 1 0 0
    outer loop
      vertex -47.95 -52.95 21
      vertex -47.95 -46.5 31.75
      vertex -47.95 -48.3589 32.2082
    endloop
  endfacet
  facet normal 1 0 0
    outer loop
      vertex -47.95 -44.6411 32.2082
      vertex -47.95 -52.95 21
      vertex -47.95 -17.95 21
    endloop
  endfacet
  facet normal 1 0 0
    outer loop
      vertex -47.95 -49.7919 33.4777
      vertex -47.95 -52.95 21
      vertex -47.95 -48.3589 32.2082
    endloop
  endfacet
  facet normal 1 0 0
    outer loop
      vertex -47.95 -50.4708 35.2679
      vertex -47.95 -52.95 21
      vertex -47.95 -49.7919 33.4777
    endloop
  endfacet
  facet normal 1 0 0
    outer loop
      vertex -47.95 -52.95 21
      vertex -47.95 -50.4708 35.2679
      vertex -47.95 -52.95 49
    endloop
  endfacet
  facet normal 1 -0 0
    outer loop
      vertex -47.95 -52.95 21
      vertex -47.95 -17.95 20
      vertex -47.95 -17.95 21
    endloop
  endfacet
  facet normal 1 0 0
    outer loop
      vertex -47.95 -17.95 20
      vertex -47.95 -52.95 21
      vertex -47.95 -52.95 20
    endloop
  endfacet
  facet normal -1 0 0
    outer loop
      vertex -62.95 -21.132 8
      vertex -62.95 -29.95 39
      vertex -62.95 -21.132 49
    endloop
  endfacet
  facet normal -1 0 0
    outer loop
      vertex -62.95 -21.132 8
      vertex -62.95 -40.95 39
      vertex -62.95 -29.95 39
    endloop
  endfacet
  facet normal -1 0 0
    outer loop
      vertex -62.95 -49.768 49
      vertex -62.95 -40.95 39
      vertex -62.95 -49.768 8
    endloop
  endfacet
  facet normal -1 0 0
    outer loop
      vertex -62.95 -49.768 8
      vertex -62.95 -40.95 39
      vertex -62.95 -21.132 8
    endloop
  endfacet
  facet normal -1 0 0
    outer loop
      vertex -62.95 -29.95 47
      vertex -62.95 -21.132 49
      vertex -62.95 -29.95 39
    endloop
  endfacet
  facet normal -1 0 0
    outer loop
      vertex -62.95 -40.95 47
      vertex -62.95 -21.132 49
      vertex -62.95 -29.95 47
    endloop
  endfacet
  facet normal -1 0 0
    outer loop
      vertex -62.95 -40.95 47
      vertex -62.95 -49.768 49
      vertex -62.95 -21.132 49
    endloop
  endfacet
  facet normal -1 0 0
    outer loop
      vertex -62.95 -40.95 39
      vertex -62.95 -49.768 49
      vertex -62.95 -40.95 47
    endloop
  endfacet
  facet normal 0 0 1
    outer loop
      vertex -62.95 -21.132 49
      vertex -47.95 -17.95 49
      vertex -59.768 -17.95 49
    endloop
  endfacet
  facet normal 0 0 1
    outer loop
      vertex -47.95 -17.95 49
      vertex -62.95 -21.132 49
      vertex -47.95 -52.95 49
    endloop
  endfacet
  facet normal -0 0 1
    outer loop
      vertex -62.95 -49.768 49
      vertex -47.95 -52.95 49
      vertex -62.95 -21.132 49
    endloop
  endfacet
  facet normal 0 0 1
    outer loop
      vertex -47.95 -52.95 49
      vertex -62.95 -49.768 49
      vertex -59.768 -52.95 49
    endloop
  endfacet
  facet normal 0 -1 0
    outer loop
      vertex -59.768 -52.95 49
      vertex -47.95 -52.95 21
      vertex -47.95 -52.95 49
    endloop
  endfacet
  facet normal 0 -1 0
    outer loop
      vertex -59.768 -52.95 49
      vertex -51.45 -52.95 20
      vertex -47.95 -52.95 21
    endloop
  endfacet
  facet normal 0 -1 0
    outer loop
      vertex -59.768 -52.95 8
      vertex -51.45 -52.95 20
      vertex -59.768 -52.95 49
    endloop
  endfacet
  facet normal 0 -1 -0
    outer loop
      vertex -51.45 -52.95 20
      vertex -59.768 -52.95 8
      vertex -51.45 -52.95 8
    endloop
  endfacet
  facet normal 0 -1 -0
    outer loop
      vertex -47.95 -52.95 21
      vertex -51.45 -52.95 20
      vertex -47.95 -52.95 20
    endloop
  endfacet
  facet normal 0 1 -0
    outer loop
      vertex -47.95 -17.95 21
      vertex -59.768 -17.95 49
      vertex -47.95 -17.95 49
    endloop
  endfacet
  facet normal 0 1 0
    outer loop
      vertex -51.45 -17.95 20
      vertex -47.95 -17.95 21
      vertex -47.95 -17.95 20
    endloop
  endfacet
  facet normal 0 1 0
    outer loop
      vertex -47.95 -17.95 21
      vertex -51.45 -17.95 20
      vertex -59.768 -17.95 49
    endloop
  endfacet
  facet normal 0 1 0
    outer loop
      vertex -59.768 -17.95 8
      vertex -51.45 -17.95 20
      vertex -51.45 -17.95 8
    endloop
  endfacet
  facet normal 0 1 0
    outer loop
      vertex -51.45 -17.95 20
      vertex -59.768 -17.95 8
      vertex -59.768 -17.95 49
    endloop
  endfacet
  facet normal 0 0 -1
    outer loop
      vertex -62.95 -40.95 47
      vertex -47.95 -29.95 47
      vertex -47.95 -40.95 47
    endloop
  endfacet
  facet normal -0 0 -1
    outer loop
      vertex -47.95 -29.95 47
      vertex -62.95 -40.95 47
      vertex -62.95 -29.95 47
    endloop
  endfacet
  facet normal -0 0 1
    outer loop
      vertex -62.95 -29.95 39
      vertex -47.95 -40.95 39
      vertex -47.95 -29.95 39
    endloop
  endfacet
  facet normal 0 0 1
    outer loop
      vertex -47.95 -40.95 39
      vertex -62.95 -29.95 39
      vertex -62.95 -40.95 39
    endloop
  endfacet
  facet normal 0 1 -0
    outer loop
      vertex -47.95 -40.95 39
      vertex -62.95 -40.95 47
      vertex -47.95 -40.95 47
    endloop
  endfacet
  facet normal 0 1 0
    outer loop
      vertex -62.95 -40.95 47
      vertex -47.95 -40.95 39
      vertex -62.95 -40.95 39
    endloop
  endfacet
  facet normal 0 -1 0
    outer loop
      vertex -62.95 -29.95 39
      vertex -47.95 -29.95 47
      vertex -62.95 -29.95 47
    endloop
  endfacet
  facet normal 0 -1 -0
    outer loop
      vertex -47.95 -29.95 47
      vertex -62.95 -29.95 39
      vertex -47.95 -29.95 39
    endloop
  endfacet
  facet normal -0.707107 0.707107 0
    outer loop
      vertex -62.95 -21.132 8
      vertex -59.768 -17.95 49
      vertex -59.768 -17.95 8
    endloop
  endfacet
  facet normal -0.707107 0.707107 0
    outer loop
      vertex -59.768 -17.95 49
      vertex -62.95 -21.132 8
      vertex -62.95 -21.132 49
    endloop
  endfacet
  facet normal -0.707107 -0.707107 0
    outer loop
      vertex -59.768 -52.95 8
      vertex -62.95 -49.768 49
      vertex -62.95 -49.768 8
    endloop
  endfacet
  facet normal -0.707107 -0.707107 0
    outer loop
      vertex -62.95 -49.768 49
      vertex -59.768 -52.95 8
      vertex -59.768 -52.95 49
    endloop
  endfacet
  facet normal 0 -0.239315 0.970942
    outer loop
      vertex -49.45 -44.6411 32.2082
      vertex -47.95 -46.5 31.75
      vertex -47.95 -44.6411 32.2082
    endloop
  endfacet
  facet normal 0 -0.239315 0.970942
    outer loop
      vertex -47.95 -46.5 31.75
      vertex -49.45 -44.6411 32.2082
      vertex -49.45 -46.5 31.75
    endloop
  endfacet
  facet normal 0 0 -1
    outer loop
      vertex -49.45 -47.4573 39.6338
      vertex -47.95 -45.5427 39.6338
      vertex -47.95 -47.4573 39.6338
    endloop
  endfacet
  facet normal -0 0 -1
    outer loop
      vertex -47.95 -45.5427 39.6338
      vertex -49.45 -47.4573 39.6338
      vertex -49.45 -45.5427 39.6338
    endloop
  endfacet
  facet normal 0 0.464723 -0.885456
    outer loop
      vertex -49.45 -49.1525 38.744
      vertex -47.95 -47.4573 39.6338
      vertex -47.95 -49.1525 38.744
    endloop
  endfacet
  facet normal 0 0.464723 -0.885456
    outer loop
      vertex -47.95 -47.4573 39.6338
      vertex -49.45 -49.1525 38.744
      vertex -49.45 -47.4573 39.6338
    endloop
  endfacet
  facet normal 0 -0.992709 -0.120536
    outer loop
      vertex -49.45 -42.5292 35.2679
      vertex -47.95 -42.7599 37.1684
      vertex -49.45 -42.7599 37.1684
    endloop
  endfacet
  facet normal 0 -0.992709 -0.120536
    outer loop
      vertex -47.95 -42.7599 37.1684
      vertex -49.45 -42.5292 35.2679
      vertex -47.95 -42.5292 35.2679
    endloop
  endfacet
  facet normal 0 -0.663123 0.74851
    outer loop
      vertex -49.45 -43.2081 33.4777
      vertex -47.95 -44.6411 32.2082
      vertex -47.95 -43.2081 33.4777
    endloop
  endfacet
  facet normal 0 -0.663123 0.74851
    outer loop
      vertex -47.95 -44.6411 32.2082
      vertex -49.45 -43.2081 33.4777
      vertex -49.45 -44.6411 32.2082
    endloop
  endfacet
  facet normal 0 -0.822984 -0.568065
    outer loop
      vertex -49.45 -42.7599 37.1684
      vertex -47.95 -43.8475 38.744
      vertex -49.45 -43.8475 38.744
    endloop
  endfacet
  facet normal 0 -0.822984 -0.568065
    outer loop
      vertex -47.95 -43.8475 38.744
      vertex -49.45 -42.7599 37.1684
      vertex -47.95 -42.7599 37.1684
    endloop
  endfacet
  facet normal -0 0.239315 0.970942
    outer loop
      vertex -49.45 -46.5 31.75
      vertex -47.95 -48.3589 32.2082
      vertex -47.95 -46.5 31.75
    endloop
  endfacet
  facet normal 0 0.239315 0.970942
    outer loop
      vertex -47.95 -48.3589 32.2082
      vertex -49.45 -46.5 31.75
      vertex -49.45 -48.3589 32.2082
    endloop
  endfacet
  facet normal 0 -0.935016 0.354606
    outer loop
      vertex -49.45 -43.2081 33.4777
      vertex -47.95 -42.5292 35.2679
      vertex -49.45 -42.5292 35.2679
    endloop
  endfacet
  facet normal 0 -0.935016 0.354606
    outer loop
      vertex -47.95 -42.5292 35.2679
      vertex -49.45 -43.2081 33.4777
      vertex -47.95 -43.2081 33.4777
    endloop
  endfacet
  facet normal 0 -0.464723 -0.885456
    outer loop
      vertex -49.45 -45.5427 39.6338
      vertex -47.95 -43.8475 38.744
      vertex -47.95 -45.5427 39.6338
    endloop
  endfacet
  facet normal -0 -0.464723 -0.885456
    outer loop
      vertex -47.95 -43.8475 38.744
      vertex -49.45 -45.5427 39.6338
      vertex -49.45 -43.8475 38.744
    endloop
  endfacet
  facet normal -0 0.663123 0.74851
    outer loop
      vertex -49.45 -48.3589 32.2082
      vertex -47.95 -49.7919 33.4777
      vertex -47.95 -48.3589 32.2082
    endloop
  endfacet
  facet normal 0 0.663123 0.74851
    outer loop
      vertex -47.95 -49.7919 33.4777
      vertex -49.45 -48.3589 32.2082
      vertex -49.45 -49.7919 33.4777
    endloop
  endfacet
  facet normal 1 0 0
    outer loop
      vertex -49.45 -42.7599 37.1684
      vertex -49.45 -43.2081 33.4777
      vertex -49.45 -42.5292 35.2679
    endloop
  endfacet
  facet normal 1 0 0
    outer loop
      vertex -49.45 -43.8475 38.744
      vertex -49.45 -43.2081 33.4777
      vertex -49.45 -42.7599 37.1684
    endloop
  endfacet
  facet normal 1 0 0
    outer loop
      vertex -49.45 -43.8475 38.744
      vertex -49.45 -44.6411 32.2082
      vertex -49.45 -43.2081 33.4777
    endloop
  endfacet
  facet normal 1 0 0
    outer loop
      vertex -49.45 -45.5427 39.6338
      vertex -49.45 -44.6411 32.2082
      vertex -49.45 -43.8475 38.744
    endloop
  endfacet
  facet normal 1 0 0
    outer loop
      vertex -49.45 -45.5427 39.6338
      vertex -49.45 -46.5 31.75
      vertex -49.45 -44.6411 32.2082
    endloop
  endfacet
  facet normal 1 -0 0
    outer loop
      vertex -49.45 -47.4573 39.6338
      vertex -49.45 -46.5 31.75
      vertex -49.45 -45.5427 39.6338
    endloop
  endfacet
  facet normal 1 0 0
    outer loop
      vertex -49.45 -47.4573 39.6338
      vertex -49.45 -48.3589 32.2082
      vertex -49.45 -46.5 31.75
    endloop
  endfacet
  facet normal 1 -0 0
    outer loop
      vertex -49.45 -49.1525 38.744
      vertex -49.45 -48.3589 32.2082
      vertex -49.45 -47.4573 39.6338
    endloop
  endfacet
  facet normal 1 0 0
    outer loop
      vertex -49.45 -49.1525 38.744
      vertex -49.45 -49.7919 33.4777
      vertex -49.45 -48.3589 32.2082
    endloop
  endfacet
  facet normal 1 -0 0
    outer loop
      vertex -49.45 -50.2401 37.1684
      vertex -49.45 -49.7919 33.4777
      vertex -49.45 -49.1525 38.744
    endloop
  endfacet
  facet normal 1 0 0
    outer loop
      vertex -49.45 -49.7919 33.4777
      vertex -49.45 -50.2401 37.1684
      vertex -49.45 -50.4708 35.2679
    endloop
  endfacet
  facet normal 0 0.822983 -0.568066
    outer loop
      vertex -47.95 -50.2401 37.1684
      vertex -49.45 -49.1525 38.744
      vertex -47.95 -49.1525 38.744
    endloop
  endfacet
  facet normal 0 0.822983 -0.568066
    outer loop
      vertex -49.45 -49.1525 38.744
      vertex -47.95 -50.2401 37.1684
      vertex -49.45 -50.2401 37.1684
    endloop
  endfacet
  facet normal 0 0.935017 0.354604
    outer loop
      vertex -47.95 -49.7919 33.4777
      vertex -49.45 -50.4708 35.2679
      vertex -47.95 -50.4708 35.2679
    endloop
  endfacet
  facet normal 0 0.935017 0.354604
    outer loop
      vertex -49.45 -50.4708 35.2679
      vertex -47.95 -49.7919 33.4777
      vertex -49.45 -49.7919 33.4777
    endloop
  endfacet
  facet normal 0 0.992709 -0.120535
    outer loop
      vertex -47.95 -50.4708 35.2679
      vertex -49.45 -50.2401 37.1684
      vertex -47.95 -50.2401 37.1684
    endloop
  endfacet
  facet normal 0 0.992709 -0.120535
    outer loop
      vertex -49.45 -50.2401 37.1684
      vertex -47.95 -50.4708 35.2679
      vertex -49.45 -50.4708 35.2679
    endloop
  endfacet
  facet normal 0 0 -1
    outer loop
      vertex -62.95 -49.768 8
      vertex -51.45 -52.95 8
      vertex -59.768 -52.95 8
    endloop
  endfacet
  facet normal 0 0 -1
    outer loop
      vertex -51.45 -52.95 8
      vertex -62.95 -49.768 8
      vertex -51.45 -17.95 8
    endloop
  endfacet
  facet normal 0 0 -1
    outer loop
      vertex -62.95 -21.132 8
      vertex -51.45 -17.95 8
      vertex -62.95 -49.768 8
    endloop
  endfacet
  facet normal -0 0 -1
    outer loop
      vertex -51.45 -17.95 8
      vertex -62.95 -21.132 8
      vertex -59.768 -17.95 8
    endloop
  endfacet
endsolid OpenSCAD_Model
