solid OpenSCAD_Model
  facet normal -0.239317 -0.970941 0
    outer loop
      vertex -16.2201 -6.74005 -6
      vertex -15.2838 -6.97083 6
      vertex -16.2201 -6.74005 6
    endloop
  endfacet
  facet normal -0.239317 -0.970941 -0
    outer loop
      vertex -15.2838 -6.97083 6
      vertex -16.2201 -6.74005 -6
      vertex -15.2838 -6.97083 -6
    endloop
  endfacet
  facet normal -0.663124 -0.748509 0
    outer loop
      vertex -17.7957 -5.65248 -6
      vertex -17.074 -6.29193 6
      vertex -17.7957 -5.65248 6
    endloop
  endfacet
  facet normal -0.663124 -0.748509 -0
    outer loop
      vertex -17.074 -6.29193 6
      vertex -17.7957 -5.65248 -6
      vertex -17.074 -6.29193 -6
    endloop
  endfacet
  facet normal -0.790481 -0.612487 0
    outer loop
      vertex -17.7957 -5.65248 -6
      vertex -18.2411 -5.0777 6
      vertex -18.2411 -5.0777 -6
    endloop
  endfacet
  facet normal -0.790481 -0.612487 0
    outer loop
      vertex -18.2411 -5.0777 6
      vertex -17.7957 -5.65248 -6
      vertex -17.7957 -5.65248 6
    endloop
  endfacet
  facet normal -0.464717 -0.885459 0
    outer loop
      vertex -17.074 -6.29193 -6
      vertex -16.2201 -6.74005 6
      vertex -17.074 -6.29193 6
    endloop
  endfacet
  facet normal -0.464717 -0.885459 -0
    outer loop
      vertex -16.2201 -6.74005 6
      vertex -17.074 -6.29193 -6
      vertex -16.2201 -6.74005 -6
    endloop
  endfacet
  facet normal 0 -1 0
    outer loop
      vertex -15.2838 -6.97083 6
      vertex -0.477532 -6.97083 2.70822
      vertex 15.3004 -6.97083 6
    endloop
  endfacet
  facet normal 0 -1 0
    outer loop
      vertex -15.2838 -6.97083 6
      vertex -1.375 -6.97083 2.38157
      vertex -0.477532 -6.97083 2.70822
    endloop
  endfacet
  facet normal 0 -1 0
    outer loop
      vertex -15.2838 -6.97083 6
      vertex -2.10662 -6.97083 1.76767
      vertex -1.375 -6.97083 2.38157
    endloop
  endfacet
  facet normal 0 -1 0
    outer loop
      vertex -15.2838 -6.97083 6
      vertex -2.58415 -6.97083 0.940555
      vertex -2.10662 -6.97083 1.76767
    endloop
  endfacet
  facet normal 0 -1 0
    outer loop
      vertex -15.2838 -6.97083 6
      vertex -2.75 -6.97083 0
      vertex -2.58415 -6.97083 0.940555
    endloop
  endfacet
  facet normal 0 -1 0
    outer loop
      vertex -15.2838 -6.97083 -6
      vertex -2.75 -6.97083 0
      vertex -15.2838 -6.97083 6
    endloop
  endfacet
  facet normal 0 -1 -0
    outer loop
      vertex -2.75 -6.97083 0
      vertex -15.2838 -6.97083 -6
      vertex -2.58415 -6.97083 -0.940555
    endloop
  endfacet
  facet normal 0 -1 -0
    outer loop
      vertex -2.58415 -6.97083 -0.940555
      vertex -15.2838 -6.97083 -6
      vertex -2.10662 -6.97083 -1.76767
    endloop
  endfacet
  facet normal 0 -1 -0
    outer loop
      vertex -0.477532 -6.97083 -2.70822
      vertex -15.2838 -6.97083 -6
      vertex 0.477532 -6.97083 -2.70822
    endloop
  endfacet
  facet normal 0 -1 -0
    outer loop
      vertex -1.375 -6.97083 -2.38157
      vertex -15.2838 -6.97083 -6
      vertex -0.477532 -6.97083 -2.70822
    endloop
  endfacet
  facet normal 0 -1 -0
    outer loop
      vertex -2.10662 -6.97083 -1.76767
      vertex -15.2838 -6.97083 -6
      vertex -1.375 -6.97083 -2.38157
    endloop
  endfacet
  facet normal 0 -1 0
    outer loop
      vertex 0.477532 -6.97083 2.70822
      vertex 15.3004 -6.97083 6
      vertex -0.477532 -6.97083 2.70822
    endloop
  endfacet
  facet normal 0 -1 0
    outer loop
      vertex 1.375 -6.97083 2.38157
      vertex 15.3004 -6.97083 6
      vertex 0.477532 -6.97083 2.70822
    endloop
  endfacet
  facet normal 0 -1 0
    outer loop
      vertex 2.10662 -6.97083 1.76767
      vertex 15.3004 -6.97083 6
      vertex 1.375 -6.97083 2.38157
    endloop
  endfacet
  facet normal 0 -1 0
    outer loop
      vertex 2.58415 -6.97083 0.940555
      vertex 15.3004 -6.97083 6
      vertex 2.10662 -6.97083 1.76767
    endloop
  endfacet
  facet normal 0 -1 0
    outer loop
      vertex 2.75 -6.97083 0
      vertex 15.3004 -6.97083 6
      vertex 2.58415 -6.97083 0.940555
    endloop
  endfacet
  facet normal 0 -1 0
    outer loop
      vertex 15.3004 -6.97083 -6
      vertex 2.75 -6.97083 0
      vertex 2.58415 -6.97083 -0.940555
    endloop
  endfacet
  facet normal 0 -1 0
    outer loop
      vertex 15.3004 -6.97083 -6
      vertex 2.58415 -6.97083 -0.940555
      vertex 2.10662 -6.97083 -1.76767
    endloop
  endfacet
  facet normal 0 -1 0
    outer loop
      vertex 15.3004 -6.97083 -6
      vertex 2.10662 -6.97083 -1.76767
      vertex 1.375 -6.97083 -2.38157
    endloop
  endfacet
  facet normal 0 -1 0
    outer loop
      vertex 2.75 -6.97083 0
      vertex 15.3004 -6.97083 -6
      vertex 15.3004 -6.97083 6
    endloop
  endfacet
  facet normal 0 -1 0
    outer loop
      vertex 0.477532 -6.97083 -2.70822
      vertex 15.3004 -6.97083 -6
      vertex 1.375 -6.97083 -2.38157
    endloop
  endfacet
  facet normal 0 -1 0
    outer loop
      vertex 15.3004 -6.97083 -6
      vertex 0.477532 -6.97083 -2.70822
      vertex -15.2838 -6.97083 -6
    endloop
  endfacet
  facet normal 0.527774 0.849385 -0
    outer loop
      vertex 15.3314 7.91411 -6
      vertex 14.0964 8.68149 6
      vertex 15.3314 7.91411 6
    endloop
  endfacet
  facet normal 0.527774 0.849385 0
    outer loop
      vertex 14.0964 8.68149 6
      vertex 15.3314 7.91411 -6
      vertex 14.0964 8.68149 -6
    endloop
  endfacet
  facet normal 0.277353 0.960768 -0
    outer loop
      vertex 10.2562 10.4089 -6
      vertex 8.55022 10.9014 6
      vertex 10.2562 10.4089 6
    endloop
  endfacet
  facet normal 0.277353 0.960768 0
    outer loop
      vertex 8.55022 10.9014 6
      vertex 10.2562 10.4089 -6
      vertex 8.55022 10.9014 -6
    endloop
  endfacet
  facet normal -0.17352 0.98483 0
    outer loop
      vertex -4.86073 11.6654 -6
      vertex -6.7187 11.3381 6
      vertex -4.86073 11.6654 6
    endloop
  endfacet
  facet normal -0.17352 0.98483 0
    outer loop
      vertex -6.7187 11.3381 6
      vertex -4.86073 11.6654 -6
      vertex -6.7187 11.3381 -6
    endloop
  endfacet
  facet normal 0.992591 0.121503 0
    outer loop
      vertex 20 0 6
      vertex 19.7625 1.94035 -6
      vertex 19.7625 1.94035 6
    endloop
  endfacet
  facet normal 0.992591 0.121503 0
    outer loop
      vertex 19.7625 1.94035 -6
      vertex 20 0 6
      vertex 20 0 -6
    endloop
  endfacet
  facet normal 0.936678 0.350193 0
    outer loop
      vertex 19.7625 1.94035 6
      vertex 19.4005 2.90857 -6
      vertex 19.4005 2.90857 6
    endloop
  endfacet
  facet normal 0.936678 0.350193 0
    outer loop
      vertex 19.4005 2.90857 -6
      vertex 19.7625 1.94035 6
      vertex 19.7625 1.94035 -6
    endloop
  endfacet
  facet normal 0.239317 -0.970941 0
    outer loop
      vertex 15.3004 -6.97083 -6
      vertex 16.2367 -6.74005 6
      vertex 15.3004 -6.97083 6
    endloop
  endfacet
  facet normal 0.239317 -0.970941 0
    outer loop
      vertex 16.2367 -6.74005 6
      vertex 15.3004 -6.97083 -6
      vertex 16.2367 -6.74005 -6
    endloop
  endfacet
  facet normal -0.893346 -0.44937 0
    outer loop
      vertex -18.7889 -4.2841 -6
      vertex -19.2694 -3.32887 6
      vertex -19.2694 -3.32887 -6
    endloop
  endfacet
  facet normal -0.893346 -0.44937 0
    outer loop
      vertex -19.2694 -3.32887 6
      vertex -18.7889 -4.2841 -6
      vertex -18.7889 -4.2841 6
    endloop
  endfacet
  facet normal -0.822985 -0.568062 0
    outer loop
      vertex -18.2411 -5.0777 -6
      vertex -18.7889 -4.2841 6
      vertex -18.7889 -4.2841 -6
    endloop
  endfacet
  facet normal -0.822985 -0.568062 0
    outer loop
      vertex -18.7889 -4.2841 6
      vertex -18.2411 -5.0777 -6
      vertex -18.2411 -5.0777 6
    endloop
  endfacet
  facet normal -0.970677 0.240389 0
    outer loop
      vertex -19.8534 1.44974 -6
      vertex -19.6113 2.42725 6
      vertex -19.6113 2.42725 -6
    endloop
  endfacet
  facet normal -0.970677 0.240389 0
    outer loop
      vertex -19.6113 2.42725 6
      vertex -19.8534 1.44974 -6
      vertex -19.8534 1.44974 6
    endloop
  endfacet
  facet normal -0.935014 0.354612 0
    outer loop
      vertex -19.6113 2.42725 -6
      vertex -19.2694 3.32887 6
      vertex -19.2694 3.32887 -6
    endloop
  endfacet
  facet normal -0.935014 0.354612 0
    outer loop
      vertex -19.2694 3.32887 6
      vertex -19.6113 2.42725 -6
      vertex -19.6113 2.42725 6
    endloop
  endfacet
  facet normal -0.464717 0.885459 0
    outer loop
      vertex -12.5565 9.48334 -6
      vertex -13.4104 9.03522 6
      vertex -12.5565 9.48334 6
    endloop
  endfacet
  facet normal -0.464717 0.885459 0
    outer loop
      vertex -13.4104 9.03522 6
      vertex -12.5565 9.48334 -6
      vertex -13.4104 9.03522 -6
    endloop
  endfacet
  facet normal 0.436256 0.899822 -0
    outer loop
      vertex 13.2426 9.12961 -6
      vertex 11.8283 9.81528 6
      vertex 13.2426 9.12961 6
    endloop
  endfacet
  facet normal 0.436256 0.899822 0
    outer loop
      vertex 11.8283 9.81528 6
      vertex 13.2426 9.12961 -6
      vertex 11.8283 9.81528 -6
    endloop
  endfacet
  facet normal 0.464717 0.885459 -0
    outer loop
      vertex 14.0964 8.68149 -6
      vertex 13.2426 9.12961 6
      vertex 14.0964 8.68149 6
    endloop
  endfacet
  facet normal 0.464717 0.885459 0
    outer loop
      vertex 13.2426 9.12961 6
      vertex 14.0964 8.68149 -6
      vertex 13.2426 9.12961 -6
    endloop
  endfacet
  facet normal 0.239317 0.970941 -0
    outer loop
      vertex 8.55022 10.9014 -6
      vertex 7.61394 11.1321 6
      vertex 8.55022 10.9014 6
    endloop
  endfacet
  facet normal 0.239317 0.970941 0
    outer loop
      vertex 7.61394 11.1321 6
      vertex 8.55022 10.9014 -6
      vertex 7.61394 11.1321 -6
    endloop
  endfacet
  facet normal -0.239317 0.970941 0
    outer loop
      vertex -6.7187 11.3381 -6
      vertex -7.65498 11.1073 6
      vertex -6.7187 11.3381 6
    endloop
  endfacet
  facet normal -0.239317 0.970941 0
    outer loop
      vertex -7.65498 11.1073 6
      vertex -6.7187 11.3381 -6
      vertex -7.65498 11.1073 -6
    endloop
  endfacet
  facet normal 0 1 0
    outer loop
      vertex -0.0105743 11.967 -1.6979
      vertex -0.0105743 11.967 -6
      vertex -0.24905 11.967 -1.73219
    endloop
  endfacet
  facet normal 0 1 0
    outer loop
      vertex -0.974838 11.967 -6
      vertex -0.24905 11.967 -1.73219
      vertex -0.0105743 11.967 -6
    endloop
  endfacet
  facet normal 0 1 0
    outer loop
      vertex -0.24905 11.967 -1.73219
      vertex -0.974838 11.967 -6
      vertex -0.974838 11.967 -1.40073
    endloop
  endfacet
  facet normal 0 1 0
    outer loop
      vertex -0.0105743 11.967 6
      vertex -0.24905 11.967 1.73219
      vertex -0.974838 11.967 6
    endloop
  endfacet
  facet normal -0 1 0
    outer loop
      vertex -0.24905 11.967 1.73219
      vertex -0.0105743 11.967 6
      vertex -0.0105743 11.967 1.6979
    endloop
  endfacet
  facet normal 0 1 0
    outer loop
      vertex -0.974838 11.967 6
      vertex -0.24905 11.967 1.73219
      vertex -0.974838 11.967 1.40073
    endloop
  endfacet
  facet normal 0.822985 0.568062 0
    outer loop
      vertex 18.4614 4.74881 6
      vertex 17.9136 5.5424 -6
      vertex 17.9136 5.5424 6
    endloop
  endfacet
  facet normal 0.822985 0.568062 0
    outer loop
      vertex 17.9136 5.5424 -6
      vertex 18.4614 4.74881 6
      vertex 18.4614 4.74881 -6
    endloop
  endfacet
  facet normal 0.935014 0.354612 0
    outer loop
      vertex 19.4005 2.90857 6
      vertex 19.0585 3.8102 -6
      vertex 19.0585 3.8102 6
    endloop
  endfacet
  facet normal 0.935014 0.354612 0
    outer loop
      vertex 19.0585 3.8102 -6
      vertex 19.4005 2.90857 6
      vertex 19.4005 2.90857 -6
    endloop
  endfacet
  facet normal -0.970677 -0.240389 0
    outer loop
      vertex -19.6113 -2.42725 -6
      vertex -19.8534 -1.44974 6
      vertex -19.8534 -1.44974 -6
    endloop
  endfacet
  facet normal -0.970677 -0.240389 0
    outer loop
      vertex -19.8534 -1.44974 6
      vertex -19.6113 -2.42725 -6
      vertex -19.6113 -2.42725 6
    endloop
  endfacet
  facet normal -0 0 1
    outer loop
      vertex 18.411 0.95726 6
      vertex 20 0 6
      vertex 19.7625 1.94035 6
    endloop
  endfacet
  facet normal -0 0 1
    outer loop
      vertex 18.2562 1.94734 6
      vertex 19.7625 1.94035 6
      vertex 19.4005 2.90857 6
    endloop
  endfacet
  facet normal 0 0 1
    outer loop
      vertex 18.411 -0.95726 6
      vertex 20 0 6
      vertex 18.5273 0 6
    endloop
  endfacet
  facet normal 0 0 1
    outer loop
      vertex 17.9143 2.84897 6
      vertex 19.4005 2.90857 6
      vertex 19.0585 3.8102 6
    endloop
  endfacet
  facet normal 0 0 1
    outer loop
      vertex 20 0 6
      vertex 18.411 -0.95726 6
      vertex 19.7625 -1.94035 6
    endloop
  endfacet
  facet normal 0 0 1
    outer loop
      vertex 18.2562 -1.94734 6
      vertex 19.7625 -1.94035 6
      vertex 18.411 -0.95726 6
    endloop
  endfacet
  facet normal -0 0 1
    outer loop
      vertex 17.4531 3.81795 6
      vertex 19.0585 3.8102 6
      vertex 18.4614 4.74881 6
    endloop
  endfacet
  facet normal 0 0 1
    outer loop
      vertex 20 0 6
      vertex 18.411 0.95726 6
      vertex 18.5273 0 6
    endloop
  endfacet
  facet normal 0 0 1
    outer loop
      vertex 19.7625 1.94035 6
      vertex 18.2562 1.94734 6
      vertex 18.411 0.95726 6
    endloop
  endfacet
  facet normal 0 0 1
    outer loop
      vertex 19.4005 2.90857 6
      vertex 17.9143 2.84897 6
      vertex 18.2562 1.94734 6
    endloop
  endfacet
  facet normal 0 0 1
    outer loop
      vertex 16.9053 4.61154 6
      vertex 18.4614 4.74881 6
      vertex 17.9136 5.5424 6
    endloop
  endfacet
  facet normal 0 0 1
    outer loop
      vertex 19.0585 3.8102 6
      vertex 17.4531 3.81795 6
      vertex 17.9143 2.84897 6
    endloop
  endfacet
  facet normal 0 0 1
    outer loop
      vertex 16.1477 5.53877 6
      vertex 17.9136 5.5424 6
      vertex 17.0902 6.43723 6
    endloop
  endfacet
  facet normal 0 0 1
    outer loop
      vertex 18.4614 4.74881 6
      vertex 16.9053 4.61154 6
      vertex 17.4531 3.81795 6
    endloop
  endfacet
  facet normal 0 0 1
    outer loop
      vertex 16.1477 5.53877 6
      vertex 17.0902 6.43723 6
      vertex 16.3684 7.07668 6
    endloop
  endfacet
  facet normal 0 0 1
    outer loop
      vertex 17.9136 5.5424 6
      vertex 16.1477 5.53877 6
      vertex 16.9053 4.61154 6
    endloop
  endfacet
  facet normal 0 0 1
    outer loop
      vertex 16.3684 7.07668 6
      vertex 15.4259 6.17822 6
      vertex 16.1477 5.53877 6
    endloop
  endfacet
  facet normal 0 0 1
    outer loop
      vertex 15.3314 7.91411 6
      vertex 15.4259 6.17822 6
      vertex 16.3684 7.07668 6
    endloop
  endfacet
  facet normal 0 0 1
    outer loop
      vertex 15.3314 7.91411 6
      vertex 14.388 7.04395 6
      vertex 15.4259 6.17822 6
    endloop
  endfacet
  facet normal 0 0 1
    outer loop
      vertex 14.0964 8.68149 6
      vertex 14.388 7.04395 6
      vertex 15.3314 7.91411 6
    endloop
  endfacet
  facet normal 0 0 1
    outer loop
      vertex 13.0918 7.8297 6
      vertex 14.0964 8.68149 6
      vertex 13.2426 9.12961 6
    endloop
  endfacet
  facet normal 0 0 1
    outer loop
      vertex 14.0964 8.68149 6
      vertex 13.0918 7.8297 6
      vertex 14.388 7.04395 6
    endloop
  endfacet
  facet normal 0 0 1
    outer loop
      vertex 13.2426 9.12961 6
      vertex 12.2379 8.27782 6
      vertex 13.0918 7.8297 6
    endloop
  endfacet
  facet normal 0 0 1
    outer loop
      vertex 11.8283 9.81528 6
      vertex 12.2379 8.27782 6
      vertex 13.2426 9.12961 6
    endloop
  endfacet
  facet normal 0 0 1
    outer loop
      vertex 11.8283 9.81528 6
      vertex 10.7111 8.96684 6
      vertex 12.2379 8.27782 6
    endloop
  endfacet
  facet normal 0 0 1
    outer loop
      vertex 10.2562 10.4089 6
      vertex 10.7111 8.96684 6
      vertex 11.8283 9.81528 6
    endloop
  endfacet
  facet normal 0 0 1
    outer loop
      vertex 10.2562 10.4089 6
      vertex 8.98625 9.54448 6
      vertex 10.7111 8.96684 6
    endloop
  endfacet
  facet normal 0 0 1
    outer loop
      vertex 8.55022 10.9014 6
      vertex 8.98625 9.54448 6
      vertex 10.2562 10.4089 6
    endloop
  endfacet
  facet normal 0 0 1
    outer loop
      vertex 8.55022 10.9014 6
      vertex 8.04997 9.77525 6
      vertex 8.98625 9.54448 6
    endloop
  endfacet
  facet normal 0 0 1
    outer loop
      vertex 7.61394 11.1321 6
      vertex 8.04997 9.77525 6
      vertex 8.55022 10.9014 6
    endloop
  endfacet
  facet normal 0 0 1
    outer loop
      vertex 7.61394 11.1321 6
      vertex 6.1638 10.2292 6
      vertex 8.04997 9.77525 6
    endloop
  endfacet
  facet normal 0 0 1
    outer loop
      vertex 5.7998 11.5161 6
      vertex 6.1638 10.2292 6
      vertex 7.61394 11.1321 6
    endloop
  endfacet
  facet normal 0 0 1
    outer loop
      vertex 5.7998 11.5161 6
      vertex 4.15656 10.5497 6
      vertex 6.1638 10.2292 6
    endloop
  endfacet
  facet normal 0 0 1
    outer loop
      vertex 3.90506 11.7856 6
      vertex 4.15656 10.5497 6
      vertex 5.7998 11.5161 6
    endloop
  endfacet
  facet normal 0 0 1
    outer loop
      vertex 3.90506 11.7856 6
      vertex 2.07098 10.73 6
      vertex 4.15656 10.5497 6
    endloop
  endfacet
  facet normal 0 0 1
    outer loop
      vertex 1.95842 11.9367 6
      vertex 2.07098 10.73 6
      vertex 3.90506 11.7856 6
    endloop
  endfacet
  facet normal 0 0 1
    outer loop
      vertex -0.0484314 10.7663 6
      vertex 1.95842 11.9367 6
      vertex -0.0105743 11.967 6
    endloop
  endfacet
  facet normal 0 0 1
    outer loop
      vertex 1.95842 11.9367 6
      vertex -0.0484314 10.7663 6
      vertex 2.07098 10.73 6
    endloop
  endfacet
  facet normal -0 0 1
    outer loop
      vertex -0.974838 11.967 6
      vertex -0.0484314 10.7663 6
      vertex -0.0105743 11.967 6
    endloop
  endfacet
  facet normal 0 0 1
    outer loop
      vertex -0.974838 11.967 6
      vertex -1.0127 10.7663 6
      vertex -0.0484314 10.7663 6
    endloop
  endfacet
  facet normal -0 0 1
    outer loop
      vertex -2.93639 11.8761 6
      vertex -1.0127 10.7663 6
      vertex -0.974838 11.967 6
    endloop
  endfacet
  facet normal 0 0 1
    outer loop
      vertex -2.93639 11.8761 6
      vertex -3.12082 10.6577 6
      vertex -1.0127 10.7663 6
    endloop
  endfacet
  facet normal -0 0 1
    outer loop
      vertex -4.86073 11.6654 6
      vertex -3.12082 10.6577 6
      vertex -2.93639 11.8761 6
    endloop
  endfacet
  facet normal 0 0 1
    outer loop
      vertex -4.86073 11.6654 6
      vertex -5.1727 10.4066 6
      vertex -3.12082 10.6577 6
    endloop
  endfacet
  facet normal -0 0 1
    outer loop
      vertex -6.7187 11.3381 6
      vertex -5.1727 10.4066 6
      vertex -4.86073 11.6654 6
    endloop
  endfacet
  facet normal 0 0 1
    outer loop
      vertex -6.7187 11.3381 6
      vertex -7.1246 10.0183 6
      vertex -5.1727 10.4066 6
    endloop
  endfacet
  facet normal -0 0 1
    outer loop
      vertex -7.65498 11.1073 6
      vertex -7.1246 10.0183 6
      vertex -6.7187 11.3381 6
    endloop
  endfacet
  facet normal 0 0 1
    outer loop
      vertex -7.65498 11.1073 6
      vertex -8.06088 9.78757 6
      vertex -7.1246 10.0183 6
    endloop
  endfacet
  facet normal -0 0 1
    outer loop
      vertex -9.41841 10.6682 6
      vertex -8.06088 9.78757 6
      vertex -7.65498 11.1073 6
    endloop
  endfacet
  facet normal 0 0 1
    outer loop
      vertex -9.41841 10.6682 6
      vertex -9.87123 9.27042 6
      vertex -8.06088 9.78757 6
    endloop
  endfacet
  facet normal -0 0 1
    outer loop
      vertex -11.0606 10.1242 6
      vertex -9.87123 9.27042 6
      vertex -9.41841 10.6682 6
    endloop
  endfacet
  facet normal 0 0 1
    outer loop
      vertex -11.0606 10.1242 6
      vertex -11.5014 8.63539 6
      vertex -9.87123 9.27042 6
    endloop
  endfacet
  facet normal -0 0 1
    outer loop
      vertex -12.5565 9.48334 6
      vertex -11.5014 8.63539 6
      vertex -11.0606 10.1242 6
    endloop
  endfacet
  facet normal 0 0 1
    outer loop
      vertex -12.5565 9.48334 6
      vertex -12.9167 7.89603 6
      vertex -11.5014 8.63539 6
    endloop
  endfacet
  facet normal -0 0 1
    outer loop
      vertex -13.4104 9.03522 6
      vertex -12.9167 7.89603 6
      vertex -12.5565 9.48334 6
    endloop
  endfacet
  facet normal 0 0 1
    outer loop
      vertex -13.4104 9.03522 6
      vertex -13.7705 7.44791 6
      vertex -12.9167 7.89603 6
    endloop
  endfacet
  facet normal -0 0 1
    outer loop
      vertex -14.7375 8.30731 6
      vertex -13.7705 7.44791 6
      vertex -13.4104 9.03522 6
    endloop
  endfacet
  facet normal 0 0 1
    outer loop
      vertex -14.7375 8.30731 6
      vertex -14.9407 6.61996 6
      vertex -13.7705 7.44791 6
    endloop
  endfacet
  facet normal -0 0 1
    outer loop
      vertex -15.8757 7.50339 6
      vertex -14.9407 6.61996 6
      vertex -14.7375 8.30731 6
    endloop
  endfacet
  facet normal 0 0 1
    outer loop
      vertex -14.9407 6.61996 6
      vertex -15.8757 7.50339 6
      vertex -15.6625 5.98051 6
    endloop
  endfacet
  facet normal -0 0 1
    outer loop
      vertex -16.5975 6.86394 6
      vertex -15.6625 5.98051 6
      vertex -15.8757 7.50339 6
    endloop
  endfacet
  facet normal 0 0 1
    outer loop
      vertex -15.6625 5.98051 6
      vertex -16.5975 6.86394 6
      vertex -16.5627 5.08165 6
    endloop
  endfacet
  facet normal -0 0 1
    outer loop
      vertex -17.5295 5.99615 6
      vertex -16.5627 5.08165 6
      vertex -16.5975 6.86394 6
    endloop
  endfacet
  facet normal 0 0 1
    outer loop
      vertex -18.2411 5.0777 6
      vertex -16.5627 5.08165 6
      vertex -17.5295 5.99615 6
    endloop
  endfacet
  facet normal 0 0 1
    outer loop
      vertex -16.5627 5.08165 6
      vertex -18.2411 5.0777 6
      vertex -17.1105 4.28806 6
    endloop
  endfacet
  facet normal 0 0 1
    outer loop
      vertex -18.7889 4.2841 6
      vertex -17.1105 4.28806 6
      vertex -18.2411 5.0777 6
    endloop
  endfacet
  facet normal 0 0 1
    outer loop
      vertex -17.1105 4.28806 6
      vertex -18.7889 4.2841 6
      vertex -17.7215 3.3374 6
    endloop
  endfacet
  facet normal 0 0 1
    outer loop
      vertex -19.2694 3.32887 6
      vertex -17.7215 3.3374 6
      vertex -18.7889 4.2841 6
    endloop
  endfacet
  facet normal 0 0 1
    outer loop
      vertex -17.7215 3.3374 6
      vertex -19.2694 3.32887 6
      vertex -18.0635 2.43578 6
    endloop
  endfacet
  facet normal 0 0 1
    outer loop
      vertex -18.0635 2.43578 6
      vertex -19.6113 2.42725 6
      vertex -18.3723 1.45361 6
    endloop
  endfacet
  facet normal 0 0 1
    outer loop
      vertex -19.6113 2.42725 6
      vertex -18.0635 2.43578 6
      vertex -19.2694 3.32887 6
    endloop
  endfacet
  facet normal 0 0 1
    outer loop
      vertex 19.7625 -1.94035 6
      vertex 18.2562 -1.94734 6
      vertex 19.4005 -2.90857 6
    endloop
  endfacet
  facet normal -0 0 1
    outer loop
      vertex 17.9143 -2.84897 6
      vertex 19.4005 -2.90857 6
      vertex 18.2562 -1.94734 6
    endloop
  endfacet
  facet normal 0 0 1
    outer loop
      vertex 19.4005 -2.90857 6
      vertex 17.9143 -2.84897 6
      vertex 19.0585 -3.8102 6
    endloop
  endfacet
  facet normal -0 0 1
    outer loop
      vertex 17.5288 -3.65887 6
      vertex 19.0585 -3.8102 6
      vertex 17.9143 -2.84897 6
    endloop
  endfacet
  facet normal 0 0 1
    outer loop
      vertex 19.0585 -3.8102 6
      vertex 17.5288 -3.65887 6
      vertex 18.4614 -4.74881 6
    endloop
  endfacet
  facet normal -0 0 1
    outer loop
      vertex 16.981 -4.45247 6
      vertex 18.4614 -4.74881 6
      vertex 17.5288 -3.65887 6
    endloop
  endfacet
  facet normal 0 0 1
    outer loop
      vertex 18.4614 -4.74881 6
      vertex 16.981 -4.45247 6
      vertex 17.9136 -5.5424 6
    endloop
  endfacet
  facet normal 0 0 1
    outer loop
      vertex 17.9136 -5.5424 6
      vertex 16.981 -4.45247 6
      vertex 17.8123 -5.65248 6
    endloop
  endfacet
  facet normal -0 0 1
    outer loop
      vertex 16.2593 -5.09192 6
      vertex 17.8123 -5.65248 6
      vertex 16.981 -4.45247 6
    endloop
  endfacet
  facet normal 0 0 1
    outer loop
      vertex 17.8123 -5.65248 6
      vertex 16.2593 -5.09192 6
      vertex 17.0905 -6.29193 6
    endloop
  endfacet
  facet normal 0 0 1
    outer loop
      vertex 16.2593 -5.09192 6
      vertex 16.2367 -6.74005 6
      vertex 17.0905 -6.29193 6
    endloop
  endfacet
  facet normal -0 0 1
    outer loop
      vertex 15.4054 -5.54004 6
      vertex 16.2367 -6.74005 6
      vertex 16.2593 -5.09192 6
    endloop
  endfacet
  facet normal 0 0 1
    outer loop
      vertex 15.4054 -5.54004 6
      vertex 15.3004 -6.97083 6
      vertex 16.2367 -6.74005 6
    endloop
  endfacet
  facet normal -0 0 1
    outer loop
      vertex 14.4691 -5.77081 6
      vertex 15.3004 -6.97083 6
      vertex 15.4054 -5.54004 6
    endloop
  endfacet
  facet normal -0 0 1
    outer loop
      vertex -14.4552 -5.77081 6
      vertex 15.3004 -6.97083 6
      vertex 14.4691 -5.77081 6
    endloop
  endfacet
  facet normal 0 0 1
    outer loop
      vertex -14.4552 -5.77081 6
      vertex -15.2838 -6.97083 6
      vertex 15.3004 -6.97083 6
    endloop
  endfacet
  facet normal 0 0 1
    outer loop
      vertex -15.3915 -5.54004 6
      vertex -15.2838 -6.97083 6
      vertex -14.4552 -5.77081 6
    endloop
  endfacet
  facet normal 0 0 1
    outer loop
      vertex -15.3915 -5.54004 6
      vertex -16.2201 -6.74005 6
      vertex -15.2838 -6.97083 6
    endloop
  endfacet
  facet normal 0 0 1
    outer loop
      vertex -16.2453 -5.09192 6
      vertex -16.2201 -6.74005 6
      vertex -15.3915 -5.54004 6
    endloop
  endfacet
  facet normal 0 0 1
    outer loop
      vertex -17.7957 -5.65248 6
      vertex -16.2453 -5.09192 6
      vertex -16.9671 -4.45247 6
    endloop
  endfacet
  facet normal 0 0 1
    outer loop
      vertex -16.2453 -5.09192 6
      vertex -17.074 -6.29193 6
      vertex -16.2201 -6.74005 6
    endloop
  endfacet
  facet normal 0 0 1
    outer loop
      vertex -18.2411 -5.0777 6
      vertex -16.9671 -4.45247 6
      vertex -17.5149 -3.65887 6
    endloop
  endfacet
  facet normal 0 0 1
    outer loop
      vertex -18.7889 -4.2841 6
      vertex -17.5149 -3.65887 6
      vertex -17.7215 -3.3374 6
    endloop
  endfacet
  facet normal 0 0 1
    outer loop
      vertex -16.2453 -5.09192 6
      vertex -17.7957 -5.65248 6
      vertex -17.074 -6.29193 6
    endloop
  endfacet
  facet normal -0 0 1
    outer loop
      vertex -19.2694 -3.32887 6
      vertex -17.7215 -3.3374 6
      vertex -18.0635 -2.43578 6
    endloop
  endfacet
  facet normal 0 0 1
    outer loop
      vertex -16.9671 -4.45247 6
      vertex -18.2411 -5.0777 6
      vertex -17.7957 -5.65248 6
    endloop
  endfacet
  facet normal -0 0 1
    outer loop
      vertex -19.6113 -2.42725 6
      vertex -18.0635 -2.43578 6
      vertex -18.3723 -1.45361 6
    endloop
  endfacet
  facet normal -0 0 1
    outer loop
      vertex -19.8534 -1.44974 6
      vertex -18.3723 -1.45361 6
      vertex -18.4885 -0.496353 6
    endloop
  endfacet
  facet normal 0 0 1
    outer loop
      vertex -19.8534 1.44974 6
      vertex -18.3723 1.45361 6
      vertex -19.6113 2.42725 6
    endloop
  endfacet
  facet normal 0 0 1
    outer loop
      vertex -18.3723 1.45361 6
      vertex -19.8534 1.44974 6
      vertex -18.4885 0.496353 6
    endloop
  endfacet
  facet normal 0 0 1
    outer loop
      vertex -17.7215 -3.3374 6
      vertex -19.2694 -3.32887 6
      vertex -18.7889 -4.2841 6
    endloop
  endfacet
  facet normal 0 0 1
    outer loop
      vertex -17.5149 -3.65887 6
      vertex -18.7889 -4.2841 6
      vertex -18.2411 -5.0777 6
    endloop
  endfacet
  facet normal 0 0 1
    outer loop
      vertex -19.9697 0.492477 6
      vertex -18.4885 0.496353 6
      vertex -19.8534 1.44974 6
    endloop
  endfacet
  facet normal 0 0 1
    outer loop
      vertex -18.0635 -2.43578 6
      vertex -19.6113 -2.42725 6
      vertex -19.2694 -3.32887 6
    endloop
  endfacet
  facet normal 0 0 1
    outer loop
      vertex -18.4885 0.496353 6
      vertex -19.9697 0.492477 6
      vertex -18.4885 -0.496353 6
    endloop
  endfacet
  facet normal 0 0 1
    outer loop
      vertex -18.3723 -1.45361 6
      vertex -19.8534 -1.44974 6
      vertex -19.6113 -2.42725 6
    endloop
  endfacet
  facet normal -0 0 1
    outer loop
      vertex -19.9697 -0.492477 6
      vertex -18.4885 -0.496353 6
      vertex -19.9697 0.492477 6
    endloop
  endfacet
  facet normal 0 0 1
    outer loop
      vertex -18.4885 -0.496353 6
      vertex -19.9697 -0.492477 6
      vertex -19.8534 -1.44974 6
    endloop
  endfacet
  facet normal -0.992708 -0.120546 0
    outer loop
      vertex -19.8534 -1.44974 -6
      vertex -19.9697 -0.492477 6
      vertex -19.9697 -0.492477 -6
    endloop
  endfacet
  facet normal -0.992708 -0.120546 0
    outer loop
      vertex -19.9697 -0.492477 6
      vertex -19.8534 -1.44974 -6
      vertex -19.8534 -1.44974 6
    endloop
  endfacet
  facet normal -0.893346 0.44937 0
    outer loop
      vertex -19.2694 3.32887 -6
      vertex -18.7889 4.2841 6
      vertex -18.7889 4.2841 -6
    endloop
  endfacet
  facet normal -0.893346 0.44937 0
    outer loop
      vertex -18.7889 4.2841 6
      vertex -19.2694 3.32887 -6
      vertex -19.2694 3.32887 6
    endloop
  endfacet
  facet normal -0.393764 0.919211 0
    outer loop
      vertex -11.0606 10.1242 -6
      vertex -12.5565 9.48334 6
      vertex -11.0606 10.1242 6
    endloop
  endfacet
  facet normal -0.393764 0.919211 0
    outer loop
      vertex -12.5565 9.48334 6
      vertex -11.0606 10.1242 -6
      vertex -12.5565 9.48334 -6
    endloop
  endfacet
  facet normal 0.353242 0.935532 -0
    outer loop
      vertex 11.8283 9.81528 -6
      vertex 10.2562 10.4089 6
      vertex 11.8283 9.81528 6
    endloop
  endfacet
  facet normal 0.353242 0.935532 0
    outer loop
      vertex 10.2562 10.4089 6
      vertex 11.8283 9.81528 -6
      vertex 10.2562 10.4089 -6
    endloop
  endfacet
  facet normal 0.140842 0.990032 -0
    outer loop
      vertex 5.7998 11.5161 -6
      vertex 3.90506 11.7856 6
      vertex 5.7998 11.5161 6
    endloop
  endfacet
  facet normal 0.140842 0.990032 0
    outer loop
      vertex 3.90506 11.7856 6
      vertex 5.7998 11.5161 -6
      vertex 3.90506 11.7856 -6
    endloop
  endfacet
  facet normal 0.207045 0.978331 -0
    outer loop
      vertex 7.61394 11.1321 -6
      vertex 5.7998 11.5161 6
      vertex 7.61394 11.1321 6
    endloop
  endfacet
  facet normal 0.207045 0.978331 0
    outer loop
      vertex 5.7998 11.5161 6
      vertex 7.61394 11.1321 -6
      vertex 5.7998 11.5161 -6
    endloop
  endfacet
  facet normal -0.314502 0.949257 0
    outer loop
      vertex -9.41841 10.6682 -6
      vertex -11.0606 10.1242 6
      vertex -9.41841 10.6682 6
    endloop
  endfacet
  facet normal -0.314502 0.949257 0
    outer loop
      vertex -11.0606 10.1242 6
      vertex -9.41841 10.6682 -6
      vertex -11.0606 10.1242 -6
    endloop
  endfacet
  facet normal -0.241595 0.970377 0
    outer loop
      vertex -7.65498 11.1073 -6
      vertex -9.41841 10.6682 6
      vertex -7.65498 11.1073 6
    endloop
  endfacet
  facet normal -0.241595 0.970377 0
    outer loop
      vertex -9.41841 10.6682 6
      vertex -7.65498 11.1073 -6
      vertex -9.41841 10.6682 -6
    endloop
  endfacet
  facet normal -0.108853 0.994058 0
    outer loop
      vertex -2.93639 11.8761 -6
      vertex -4.86073 11.6654 6
      vertex -2.93639 11.8761 6
    endloop
  endfacet
  facet normal -0.108853 0.994058 0
    outer loop
      vertex -4.86073 11.6654 6
      vertex -2.93639 11.8761 -6
      vertex -4.86073 11.6654 -6
    endloop
  endfacet
  facet normal -0.0462818 0.998928 0
    outer loop
      vertex -0.974838 11.967 1.40073
      vertex -2.93639 11.8761 6
      vertex -0.974838 11.967 6
    endloop
  endfacet
  facet normal -0.0462834 0.998928 -6.74442e-07
    outer loop
      vertex -1.14601 11.9591 1.32256
      vertex -2.93639 11.8761 6
      vertex -0.974838 11.967 1.40073
    endloop
  endfacet
  facet normal -0.0462813 0.998928 1.35474e-07
    outer loop
      vertex -1.67911 11.9344 0.493032
      vertex -2.93639 11.8761 6
      vertex -1.14601 11.9591 1.32256
    endloop
  endfacet
  facet normal -0.0462819 0.998928 0
    outer loop
      vertex -1.67911 11.9344 -0.493032
      vertex -2.93639 11.8761 6
      vertex -1.67911 11.9344 0.493032
    endloop
  endfacet
  facet normal -0.0462818 0.998928 0
    outer loop
      vertex -2.93639 11.8761 -6
      vertex -0.974838 11.967 -1.40073
      vertex -0.974838 11.967 -6
    endloop
  endfacet
  facet normal -0.0462834 0.998928 6.74442e-07
    outer loop
      vertex -0.974838 11.967 -1.40073
      vertex -2.93639 11.8761 -6
      vertex -1.14601 11.9591 -1.32256
    endloop
  endfacet
  facet normal -0.0462813 0.998928 -1.35474e-07
    outer loop
      vertex -1.14601 11.9591 -1.32256
      vertex -2.93639 11.8761 -6
      vertex -1.67911 11.9344 -0.493032
    endloop
  endfacet
  facet normal -0.0462819 0.998928 0
    outer loop
      vertex -1.67911 11.9344 -0.493032
      vertex -2.93639 11.8761 -6
      vertex -2.93639 11.8761 6
    endloop
  endfacet
  facet normal 0.0773843 0.997001 -0
    outer loop
      vertex 3.90506 11.7856 -6
      vertex 1.95842 11.9367 6
      vertex 3.90506 11.7856 6
    endloop
  endfacet
  facet normal 0.0773843 0.997001 0
    outer loop
      vertex 1.95842 11.9367 6
      vertex 3.90506 11.7856 -6
      vertex 1.95842 11.9367 -6
    endloop
  endfacet
  facet normal 0.628254 0.778008 -0
    outer loop
      vertex 16.3684 7.07668 -6
      vertex 15.3314 7.91411 6
      vertex 16.3684 7.07668 6
    endloop
  endfacet
  facet normal 0.628254 0.778008 0
    outer loop
      vertex 15.3314 7.91411 6
      vertex 16.3684 7.07668 -6
      vertex 15.3314 7.91411 -6
    endloop
  endfacet
  facet normal 0.735878 0.677114 0
    outer loop
      vertex 17.9136 5.5424 6
      vertex 17.0902 6.43723 -6
      vertex 17.0902 6.43723 6
    endloop
  endfacet
  facet normal 0.735878 0.677114 0
    outer loop
      vertex 17.0902 6.43723 -6
      vertex 17.9136 5.5424 6
      vertex 17.9136 5.5424 -6
    endloop
  endfacet
  facet normal 0.843709 0.536801 0
    outer loop
      vertex 19.0585 3.8102 6
      vertex 18.4614 4.74881 -6
      vertex 18.4614 4.74881 6
    endloop
  endfacet
  facet normal 0.843709 0.536801 0
    outer loop
      vertex 18.4614 4.74881 -6
      vertex 19.0585 3.8102 6
      vertex 19.0585 3.8102 -6
    endloop
  endfacet
  facet normal -0.935014 -0.354612 0
    outer loop
      vertex -19.2694 -3.32887 -6
      vertex -19.6113 -2.42725 6
      vertex -19.6113 -2.42725 -6
    endloop
  endfacet
  facet normal -0.935014 -0.354612 0
    outer loop
      vertex -19.6113 -2.42725 6
      vertex -19.2694 -3.32887 -6
      vertex -19.2694 -3.32887 6
    endloop
  endfacet
  facet normal 0 0 -1
    outer loop
      vertex 18.411 -0.95726 -6
      vertex 20 0 -6
      vertex 19.7625 -1.94035 -6
    endloop
  endfacet
  facet normal 0 0 -1
    outer loop
      vertex 18.2562 -1.94734 -6
      vertex 19.7625 -1.94035 -6
      vertex 19.4005 -2.90857 -6
    endloop
  endfacet
  facet normal 0 0 -1
    outer loop
      vertex 18.411 0.95726 -6
      vertex 20 0 -6
      vertex 18.5273 0 -6
    endloop
  endfacet
  facet normal 0 0 -1
    outer loop
      vertex 17.9143 -2.84897 -6
      vertex 19.4005 -2.90857 -6
      vertex 19.0585 -3.8102 -6
    endloop
  endfacet
  facet normal 0 0 -1
    outer loop
      vertex 20 0 -6
      vertex 18.411 0.95726 -6
      vertex 19.7625 1.94035 -6
    endloop
  endfacet
  facet normal 0 0 -1
    outer loop
      vertex 18.2562 1.94734 -6
      vertex 19.7625 1.94035 -6
      vertex 18.411 0.95726 -6
    endloop
  endfacet
  facet normal 0 0 -1
    outer loop
      vertex 17.5288 -3.65887 -6
      vertex 19.0585 -3.8102 -6
      vertex 18.4614 -4.74881 -6
    endloop
  endfacet
  facet normal -0 0 -1
    outer loop
      vertex 20 0 -6
      vertex 18.411 -0.95726 -6
      vertex 18.5273 0 -6
    endloop
  endfacet
  facet normal -0 0 -1
    outer loop
      vertex 19.7625 -1.94035 -6
      vertex 18.2562 -1.94734 -6
      vertex 18.411 -0.95726 -6
    endloop
  endfacet
  facet normal 0 0 -1
    outer loop
      vertex 19.4005 -2.90857 -6
      vertex 17.9143 -2.84897 -6
      vertex 18.2562 -1.94734 -6
    endloop
  endfacet
  facet normal 0 0 -1
    outer loop
      vertex 16.981 -4.45247 -6
      vertex 18.4614 -4.74881 -6
      vertex 17.9136 -5.5424 -6
    endloop
  endfacet
  facet normal 0 0 -1
    outer loop
      vertex 16.981 -4.45247 -6
      vertex 17.9136 -5.5424 -6
      vertex 17.8123 -5.65248 -6
    endloop
  endfacet
  facet normal 0 0 -1
    outer loop
      vertex 19.0585 -3.8102 -6
      vertex 17.5288 -3.65887 -6
      vertex 17.9143 -2.84897 -6
    endloop
  endfacet
  facet normal 0 0 -1
    outer loop
      vertex 16.2593 -5.09192 -6
      vertex 17.8123 -5.65248 -6
      vertex 17.0905 -6.29193 -6
    endloop
  endfacet
  facet normal 0 0 -1
    outer loop
      vertex 18.4614 -4.74881 -6
      vertex 16.981 -4.45247 -6
      vertex 17.5288 -3.65887 -6
    endloop
  endfacet
  facet normal 0 0 -1
    outer loop
      vertex 17.8123 -5.65248 -6
      vertex 16.2593 -5.09192 -6
      vertex 16.981 -4.45247 -6
    endloop
  endfacet
  facet normal 0 0 -1
    outer loop
      vertex 16.2367 -6.74005 -6
      vertex 16.2593 -5.09192 -6
      vertex 17.0905 -6.29193 -6
    endloop
  endfacet
  facet normal 0 0 -1
    outer loop
      vertex 16.2367 -6.74005 -6
      vertex 15.4054 -5.54004 -6
      vertex 16.2593 -5.09192 -6
    endloop
  endfacet
  facet normal 0 0 -1
    outer loop
      vertex 15.3004 -6.97083 -6
      vertex 15.4054 -5.54004 -6
      vertex 16.2367 -6.74005 -6
    endloop
  endfacet
  facet normal 0 0 -1
    outer loop
      vertex 15.3004 -6.97083 -6
      vertex 14.4691 -5.77081 -6
      vertex 15.4054 -5.54004 -6
    endloop
  endfacet
  facet normal 0 0 -1
    outer loop
      vertex 15.3004 -6.97083 -6
      vertex -14.4552 -5.77081 -6
      vertex 14.4691 -5.77081 -6
    endloop
  endfacet
  facet normal 0 0 -1
    outer loop
      vertex -15.2838 -6.97083 -6
      vertex -14.4552 -5.77081 -6
      vertex 15.3004 -6.97083 -6
    endloop
  endfacet
  facet normal 0 0 -1
    outer loop
      vertex -15.2838 -6.97083 -6
      vertex -15.3915 -5.54004 -6
      vertex -14.4552 -5.77081 -6
    endloop
  endfacet
  facet normal 0 0 -1
    outer loop
      vertex -16.2201 -6.74005 -6
      vertex -15.3915 -5.54004 -6
      vertex -15.2838 -6.97083 -6
    endloop
  endfacet
  facet normal 0 0 -1
    outer loop
      vertex -16.2201 -6.74005 -6
      vertex -16.2453 -5.09192 -6
      vertex -15.3915 -5.54004 -6
    endloop
  endfacet
  facet normal 0 0 -1
    outer loop
      vertex -17.074 -6.29193 -6
      vertex -16.2453 -5.09192 -6
      vertex -16.2201 -6.74005 -6
    endloop
  endfacet
  facet normal 0 0 -1
    outer loop
      vertex -17.7957 -5.65248 -6
      vertex -16.2453 -5.09192 -6
      vertex -17.074 -6.29193 -6
    endloop
  endfacet
  facet normal -0 0 -1
    outer loop
      vertex -16.2453 -5.09192 -6
      vertex -17.7957 -5.65248 -6
      vertex -16.9671 -4.45247 -6
    endloop
  endfacet
  facet normal 0 0 -1
    outer loop
      vertex -18.2411 -5.0777 -6
      vertex -16.9671 -4.45247 -6
      vertex -17.7957 -5.65248 -6
    endloop
  endfacet
  facet normal -0 0 -1
    outer loop
      vertex -16.9671 -4.45247 -6
      vertex -18.2411 -5.0777 -6
      vertex -17.5149 -3.65887 -6
    endloop
  endfacet
  facet normal 0 0 -1
    outer loop
      vertex -18.7889 -4.2841 -6
      vertex -17.5149 -3.65887 -6
      vertex -18.2411 -5.0777 -6
    endloop
  endfacet
  facet normal -0 0 -1
    outer loop
      vertex -17.5149 -3.65887 -6
      vertex -18.7889 -4.2841 -6
      vertex -17.7215 -3.3374 -6
    endloop
  endfacet
  facet normal 0 0 -1
    outer loop
      vertex -19.2694 -3.32887 -6
      vertex -17.7215 -3.3374 -6
      vertex -18.7889 -4.2841 -6
    endloop
  endfacet
  facet normal 0 0 -1
    outer loop
      vertex -17.7215 -3.3374 -6
      vertex -19.2694 -3.32887 -6
      vertex -18.0635 -2.43578 -6
    endloop
  endfacet
  facet normal 0 0 -1
    outer loop
      vertex -18.0635 -2.43578 -6
      vertex -19.6113 -2.42725 -6
      vertex -18.3723 -1.45361 -6
    endloop
  endfacet
  facet normal 0 0 -1
    outer loop
      vertex -19.6113 -2.42725 -6
      vertex -18.0635 -2.43578 -6
      vertex -19.2694 -3.32887 -6
    endloop
  endfacet
  facet normal 0 0 -1
    outer loop
      vertex 19.7625 1.94035 -6
      vertex 18.2562 1.94734 -6
      vertex 19.4005 2.90857 -6
    endloop
  endfacet
  facet normal 0 0 -1
    outer loop
      vertex 17.9143 2.84897 -6
      vertex 19.4005 2.90857 -6
      vertex 18.2562 1.94734 -6
    endloop
  endfacet
  facet normal -0 0 -1
    outer loop
      vertex 19.4005 2.90857 -6
      vertex 17.9143 2.84897 -6
      vertex 19.0585 3.8102 -6
    endloop
  endfacet
  facet normal 0 0 -1
    outer loop
      vertex 17.4531 3.81795 -6
      vertex 19.0585 3.8102 -6
      vertex 17.9143 2.84897 -6
    endloop
  endfacet
  facet normal 0 0 -1
    outer loop
      vertex 19.0585 3.8102 -6
      vertex 17.4531 3.81795 -6
      vertex 18.4614 4.74881 -6
    endloop
  endfacet
  facet normal 0 0 -1
    outer loop
      vertex 16.9053 4.61154 -6
      vertex 18.4614 4.74881 -6
      vertex 17.4531 3.81795 -6
    endloop
  endfacet
  facet normal -0 0 -1
    outer loop
      vertex 18.4614 4.74881 -6
      vertex 16.9053 4.61154 -6
      vertex 17.9136 5.5424 -6
    endloop
  endfacet
  facet normal 0 0 -1
    outer loop
      vertex 16.1477 5.53877 -6
      vertex 17.9136 5.5424 -6
      vertex 16.9053 4.61154 -6
    endloop
  endfacet
  facet normal -0 0 -1
    outer loop
      vertex 17.9136 5.5424 -6
      vertex 16.1477 5.53877 -6
      vertex 17.0902 6.43723 -6
    endloop
  endfacet
  facet normal -0 0 -1
    outer loop
      vertex 17.0902 6.43723 -6
      vertex 16.1477 5.53877 -6
      vertex 16.3684 7.07668 -6
    endloop
  endfacet
  facet normal 0 0 -1
    outer loop
      vertex 15.4259 6.17822 -6
      vertex 16.3684 7.07668 -6
      vertex 16.1477 5.53877 -6
    endloop
  endfacet
  facet normal 0 0 -1
    outer loop
      vertex 15.4259 6.17822 -6
      vertex 15.3314 7.91411 -6
      vertex 16.3684 7.07668 -6
    endloop
  endfacet
  facet normal 0 0 -1
    outer loop
      vertex 14.388 7.04395 -6
      vertex 15.3314 7.91411 -6
      vertex 15.4259 6.17822 -6
    endloop
  endfacet
  facet normal 0 0 -1
    outer loop
      vertex 14.388 7.04395 -6
      vertex 14.0964 8.68149 -6
      vertex 15.3314 7.91411 -6
    endloop
  endfacet
  facet normal 0 0 -1
    outer loop
      vertex 13.0918 7.8297 -6
      vertex 14.0964 8.68149 -6
      vertex 14.388 7.04395 -6
    endloop
  endfacet
  facet normal -0 0 -1
    outer loop
      vertex 14.0964 8.68149 -6
      vertex 13.0918 7.8297 -6
      vertex 13.2426 9.12961 -6
    endloop
  endfacet
  facet normal 0 0 -1
    outer loop
      vertex 12.2379 8.27782 -6
      vertex 13.2426 9.12961 -6
      vertex 13.0918 7.8297 -6
    endloop
  endfacet
  facet normal 0 0 -1
    outer loop
      vertex 12.2379 8.27782 -6
      vertex 11.8283 9.81528 -6
      vertex 13.2426 9.12961 -6
    endloop
  endfacet
  facet normal 0 0 -1
    outer loop
      vertex 10.7111 8.96684 -6
      vertex 11.8283 9.81528 -6
      vertex 12.2379 8.27782 -6
    endloop
  endfacet
  facet normal 0 0 -1
    outer loop
      vertex 10.7111 8.96684 -6
      vertex 10.2562 10.4089 -6
      vertex 11.8283 9.81528 -6
    endloop
  endfacet
  facet normal 0 0 -1
    outer loop
      vertex 8.98625 9.54448 -6
      vertex 10.2562 10.4089 -6
      vertex 10.7111 8.96684 -6
    endloop
  endfacet
  facet normal 0 0 -1
    outer loop
      vertex 8.98625 9.54448 -6
      vertex 8.55022 10.9014 -6
      vertex 10.2562 10.4089 -6
    endloop
  endfacet
  facet normal 0 0 -1
    outer loop
      vertex 8.04997 9.77525 -6
      vertex 8.55022 10.9014 -6
      vertex 8.98625 9.54448 -6
    endloop
  endfacet
  facet normal 0 0 -1
    outer loop
      vertex 8.04997 9.77525 -6
      vertex 7.61394 11.1321 -6
      vertex 8.55022 10.9014 -6
    endloop
  endfacet
  facet normal 0 0 -1
    outer loop
      vertex 6.1638 10.2292 -6
      vertex 7.61394 11.1321 -6
      vertex 8.04997 9.77525 -6
    endloop
  endfacet
  facet normal 0 0 -1
    outer loop
      vertex 6.1638 10.2292 -6
      vertex 5.7998 11.5161 -6
      vertex 7.61394 11.1321 -6
    endloop
  endfacet
  facet normal 0 0 -1
    outer loop
      vertex 4.15656 10.5497 -6
      vertex 5.7998 11.5161 -6
      vertex 6.1638 10.2292 -6
    endloop
  endfacet
  facet normal 0 0 -1
    outer loop
      vertex 4.15656 10.5497 -6
      vertex 3.90506 11.7856 -6
      vertex 5.7998 11.5161 -6
    endloop
  endfacet
  facet normal 0 0 -1
    outer loop
      vertex 2.07098 10.73 -6
      vertex 3.90506 11.7856 -6
      vertex 4.15656 10.5497 -6
    endloop
  endfacet
  facet normal 0 0 -1
    outer loop
      vertex 2.07098 10.73 -6
      vertex 1.95842 11.9367 -6
      vertex 3.90506 11.7856 -6
    endloop
  endfacet
  facet normal 0 0 -1
    outer loop
      vertex -0.0484314 10.7663 -6
      vertex 1.95842 11.9367 -6
      vertex 2.07098 10.73 -6
    endloop
  endfacet
  facet normal -0 0 -1
    outer loop
      vertex 1.95842 11.9367 -6
      vertex -0.0484314 10.7663 -6
      vertex -0.0105743 11.967 -6
    endloop
  endfacet
  facet normal 0 0 -1
    outer loop
      vertex -0.0484314 10.7663 -6
      vertex -0.974838 11.967 -6
      vertex -0.0105743 11.967 -6
    endloop
  endfacet
  facet normal 0 0 -1
    outer loop
      vertex -1.0127 10.7663 -6
      vertex -0.974838 11.967 -6
      vertex -0.0484314 10.7663 -6
    endloop
  endfacet
  facet normal 0 0 -1
    outer loop
      vertex -1.0127 10.7663 -6
      vertex -2.93639 11.8761 -6
      vertex -0.974838 11.967 -6
    endloop
  endfacet
  facet normal 0 0 -1
    outer loop
      vertex -3.12082 10.6577 -6
      vertex -2.93639 11.8761 -6
      vertex -1.0127 10.7663 -6
    endloop
  endfacet
  facet normal 0 0 -1
    outer loop
      vertex -3.12082 10.6577 -6
      vertex -4.86073 11.6654 -6
      vertex -2.93639 11.8761 -6
    endloop
  endfacet
  facet normal 0 0 -1
    outer loop
      vertex -5.1727 10.4066 -6
      vertex -4.86073 11.6654 -6
      vertex -3.12082 10.6577 -6
    endloop
  endfacet
  facet normal 0 0 -1
    outer loop
      vertex -5.1727 10.4066 -6
      vertex -6.7187 11.3381 -6
      vertex -4.86073 11.6654 -6
    endloop
  endfacet
  facet normal 0 0 -1
    outer loop
      vertex -7.1246 10.0183 -6
      vertex -6.7187 11.3381 -6
      vertex -5.1727 10.4066 -6
    endloop
  endfacet
  facet normal 0 0 -1
    outer loop
      vertex -7.1246 10.0183 -6
      vertex -7.65498 11.1073 -6
      vertex -6.7187 11.3381 -6
    endloop
  endfacet
  facet normal 0 0 -1
    outer loop
      vertex -8.06088 9.78757 -6
      vertex -7.65498 11.1073 -6
      vertex -7.1246 10.0183 -6
    endloop
  endfacet
  facet normal 0 0 -1
    outer loop
      vertex -8.06088 9.78757 -6
      vertex -9.41841 10.6682 -6
      vertex -7.65498 11.1073 -6
    endloop
  endfacet
  facet normal 0 0 -1
    outer loop
      vertex -9.87123 9.27042 -6
      vertex -9.41841 10.6682 -6
      vertex -8.06088 9.78757 -6
    endloop
  endfacet
  facet normal 0 0 -1
    outer loop
      vertex -9.87123 9.27042 -6
      vertex -11.0606 10.1242 -6
      vertex -9.41841 10.6682 -6
    endloop
  endfacet
  facet normal 0 0 -1
    outer loop
      vertex -11.5014 8.63539 -6
      vertex -11.0606 10.1242 -6
      vertex -9.87123 9.27042 -6
    endloop
  endfacet
  facet normal 0 0 -1
    outer loop
      vertex -11.5014 8.63539 -6
      vertex -12.5565 9.48334 -6
      vertex -11.0606 10.1242 -6
    endloop
  endfacet
  facet normal 0 0 -1
    outer loop
      vertex -12.9167 7.89603 -6
      vertex -12.5565 9.48334 -6
      vertex -11.5014 8.63539 -6
    endloop
  endfacet
  facet normal 0 0 -1
    outer loop
      vertex -12.9167 7.89603 -6
      vertex -13.4104 9.03522 -6
      vertex -12.5565 9.48334 -6
    endloop
  endfacet
  facet normal 0 0 -1
    outer loop
      vertex -13.7705 7.44791 -6
      vertex -13.4104 9.03522 -6
      vertex -12.9167 7.89603 -6
    endloop
  endfacet
  facet normal 0 0 -1
    outer loop
      vertex -13.7705 7.44791 -6
      vertex -14.7375 8.30731 -6
      vertex -13.4104 9.03522 -6
    endloop
  endfacet
  facet normal 0 0 -1
    outer loop
      vertex -14.9407 6.61996 -6
      vertex -14.7375 8.30731 -6
      vertex -13.7705 7.44791 -6
    endloop
  endfacet
  facet normal 0 0 -1
    outer loop
      vertex -15.8757 7.50339 -6
      vertex -14.9407 6.61996 -6
      vertex -15.6625 5.98051 -6
    endloop
  endfacet
  facet normal 0 0 -1
    outer loop
      vertex -14.9407 6.61996 -6
      vertex -15.8757 7.50339 -6
      vertex -14.7375 8.30731 -6
    endloop
  endfacet
  facet normal 0 0 -1
    outer loop
      vertex -16.5975 6.86394 -6
      vertex -15.6625 5.98051 -6
      vertex -16.5627 5.08165 -6
    endloop
  endfacet
  facet normal 0 0 -1
    outer loop
      vertex -15.6625 5.98051 -6
      vertex -16.5975 6.86394 -6
      vertex -15.8757 7.50339 -6
    endloop
  endfacet
  facet normal 0 0 -1
    outer loop
      vertex -18.2411 5.0777 -6
      vertex -16.5627 5.08165 -6
      vertex -17.1105 4.28806 -6
    endloop
  endfacet
  facet normal 0 0 -1
    outer loop
      vertex -16.5627 5.08165 -6
      vertex -17.5295 5.99615 -6
      vertex -16.5975 6.86394 -6
    endloop
  endfacet
  facet normal 0 0 -1
    outer loop
      vertex -18.7889 4.2841 -6
      vertex -17.1105 4.28806 -6
      vertex -17.7215 3.3374 -6
    endloop
  endfacet
  facet normal 0 0 -1
    outer loop
      vertex -19.2694 3.32887 -6
      vertex -17.7215 3.3374 -6
      vertex -18.0635 2.43578 -6
    endloop
  endfacet
  facet normal -0 0 -1
    outer loop
      vertex -16.5627 5.08165 -6
      vertex -18.2411 5.0777 -6
      vertex -17.5295 5.99615 -6
    endloop
  endfacet
  facet normal 0 0 -1
    outer loop
      vertex -19.6113 2.42725 -6
      vertex -18.0635 2.43578 -6
      vertex -18.3723 1.45361 -6
    endloop
  endfacet
  facet normal 0 0 -1
    outer loop
      vertex -19.8534 1.44974 -6
      vertex -18.3723 1.45361 -6
      vertex -18.4885 0.496353 -6
    endloop
  endfacet
  facet normal 0 0 -1
    outer loop
      vertex -19.8534 -1.44974 -6
      vertex -18.3723 -1.45361 -6
      vertex -19.6113 -2.42725 -6
    endloop
  endfacet
  facet normal 0 0 -1
    outer loop
      vertex -18.3723 -1.45361 -6
      vertex -19.8534 -1.44974 -6
      vertex -18.4885 -0.496353 -6
    endloop
  endfacet
  facet normal -0 0 -1
    outer loop
      vertex -17.7215 3.3374 -6
      vertex -19.2694 3.32887 -6
      vertex -18.7889 4.2841 -6
    endloop
  endfacet
  facet normal -0 0 -1
    outer loop
      vertex -17.1105 4.28806 -6
      vertex -18.7889 4.2841 -6
      vertex -18.2411 5.0777 -6
    endloop
  endfacet
  facet normal 0 0 -1
    outer loop
      vertex -19.9697 -0.492477 -6
      vertex -18.4885 -0.496353 -6
      vertex -19.8534 -1.44974 -6
    endloop
  endfacet
  facet normal -0 0 -1
    outer loop
      vertex -18.0635 2.43578 -6
      vertex -19.6113 2.42725 -6
      vertex -19.2694 3.32887 -6
    endloop
  endfacet
  facet normal 0 0 -1
    outer loop
      vertex -18.4885 -0.496353 -6
      vertex -19.9697 -0.492477 -6
      vertex -18.4885 0.496353 -6
    endloop
  endfacet
  facet normal -0 0 -1
    outer loop
      vertex -18.3723 1.45361 -6
      vertex -19.8534 1.44974 -6
      vertex -19.6113 2.42725 -6
    endloop
  endfacet
  facet normal 0 0 -1
    outer loop
      vertex -19.9697 0.492477 -6
      vertex -18.4885 0.496353 -6
      vertex -19.9697 -0.492477 -6
    endloop
  endfacet
  facet normal -0 0 -1
    outer loop
      vertex -18.4885 0.496353 -6
      vertex -19.9697 0.492477 -6
      vertex -19.8534 1.44974 -6
    endloop
  endfacet
  facet normal -0.681458 0.731857 0
    outer loop
      vertex -16.5975 6.86394 -6
      vertex -17.5295 5.99615 6
      vertex -16.5975 6.86394 6
    endloop
  endfacet
  facet normal -0.681458 0.731857 0
    outer loop
      vertex -17.5295 5.99615 6
      vertex -16.5975 6.86394 -6
      vertex -17.5295 5.99615 -6
    endloop
  endfacet
  facet normal 0.0154042 0.999881 -6.39097e-08
    outer loop
      vertex 0.726975 11.9557 1.59186
      vertex -0.0105743 11.967 6
      vertex 1.95842 11.9367 6
    endloop
  endfacet
  facet normal 0.0154046 0.999881 0
    outer loop
      vertex -0.0105743 11.967 6
      vertex 0.726975 11.9557 1.59186
      vertex -0.0105743 11.967 1.6979
    endloop
  endfacet
  facet normal 0.0154036 0.999881 1.12416e-07
    outer loop
      vertex 1.95842 11.9367 6
      vertex 1.47219 11.9442 0.946121
      vertex 0.726975 11.9557 1.59186
    endloop
  endfacet
  facet normal 0.0154048 0.999881 -5.67771e-09
    outer loop
      vertex 1.95842 11.9367 6
      vertex 1.75 11.9399 0
      vertex 1.47219 11.9442 0.946121
    endloop
  endfacet
  facet normal 0.0154047 0.999881 -0
    outer loop
      vertex 1.95842 11.9367 -6
      vertex 1.75 11.9399 0
      vertex 1.95842 11.9367 6
    endloop
  endfacet
  facet normal 0.0154048 0.999881 5.67771e-09
    outer loop
      vertex 1.95842 11.9367 -6
      vertex 1.47219 11.9442 -0.946121
      vertex 1.75 11.9399 0
    endloop
  endfacet
  facet normal 0.0154036 0.999881 -1.12416e-07
    outer loop
      vertex 1.95842 11.9367 -6
      vertex 0.726975 11.9557 -1.59186
      vertex 1.47219 11.9442 -0.946121
    endloop
  endfacet
  facet normal 0.0154042 0.999881 6.39097e-08
    outer loop
      vertex -0.0105743 11.967 -6
      vertex 0.726975 11.9557 -1.59186
      vertex 1.95842 11.9367 -6
    endloop
  endfacet
  facet normal 0.0154046 0.999881 0
    outer loop
      vertex 0.726975 11.9557 -1.59186
      vertex -0.0105743 11.967 -6
      vertex -0.0105743 11.967 -1.6979
    endloop
  endfacet
  facet normal 0.663124 0.748509 -0
    outer loop
      vertex 17.0902 6.43723 -6
      vertex 16.3684 7.07668 6
      vertex 17.0902 6.43723 6
    endloop
  endfacet
  facet normal 0.663124 0.748509 0
    outer loop
      vertex 16.3684 7.07668 6
      vertex 17.0902 6.43723 -6
      vertex 16.3684 7.07668 -6
    endloop
  endfacet
  facet normal 0.936678 -0.350193 0
    outer loop
      vertex 19.4005 -2.90857 6
      vertex 19.7625 -1.94035 -6
      vertex 19.7625 -1.94035 6
    endloop
  endfacet
  facet normal 0.936678 -0.350193 0
    outer loop
      vertex 19.7625 -1.94035 -6
      vertex 19.4005 -2.90857 6
      vertex 19.4005 -2.90857 -6
    endloop
  endfacet
  facet normal 0.935014 -0.354612 0
    outer loop
      vertex 19.0585 -3.8102 6
      vertex 19.4005 -2.90857 -6
      vertex 19.4005 -2.90857 6
    endloop
  endfacet
  facet normal 0.935014 -0.354612 0
    outer loop
      vertex 19.4005 -2.90857 -6
      vertex 19.0585 -3.8102 6
      vertex 19.0585 -3.8102 -6
    endloop
  endfacet
  facet normal 0.992591 -0.121503 0
    outer loop
      vertex 19.7625 -1.94035 6
      vertex 20 0 -6
      vertex 20 0 6
    endloop
  endfacet
  facet normal 0.992591 -0.121503 0
    outer loop
      vertex 20 0 -6
      vertex 19.7625 -1.94035 6
      vertex 19.7625 -1.94035 -6
    endloop
  endfacet
  facet normal 0.663124 -0.748509 0
    outer loop
      vertex 17.0905 -6.29193 -6
      vertex 17.8123 -5.65248 6
      vertex 17.0905 -6.29193 6
    endloop
  endfacet
  facet normal 0.663124 -0.748509 0
    outer loop
      vertex 17.8123 -5.65248 6
      vertex 17.0905 -6.29193 -6
      vertex 17.8123 -5.65248 -6
    endloop
  endfacet
  facet normal 0.464717 -0.885459 0
    outer loop
      vertex 16.2367 -6.74005 -6
      vertex 17.0905 -6.29193 6
      vertex 16.2367 -6.74005 6
    endloop
  endfacet
  facet normal 0.464717 -0.885459 0
    outer loop
      vertex 17.0905 -6.29193 6
      vertex 16.2367 -6.74005 -6
      vertex 17.0905 -6.29193 -6
    endloop
  endfacet
  facet normal -1 0 0
    outer loop
      vertex -19.9697 -0.492477 -6
      vertex -19.9697 0.492477 6
      vertex -19.9697 0.492477 -6
    endloop
  endfacet
  facet normal -1 -0 0
    outer loop
      vertex -19.9697 0.492477 6
      vertex -19.9697 -0.492477 -6
      vertex -19.9697 -0.492477 6
    endloop
  endfacet
  facet normal -0.992708 0.120546 0
    outer loop
      vertex -19.9697 0.492477 -6
      vertex -19.8534 1.44974 6
      vertex -19.8534 1.44974 -6
    endloop
  endfacet
  facet normal -0.992708 0.120546 0
    outer loop
      vertex -19.8534 1.44974 6
      vertex -19.9697 0.492477 -6
      vertex -19.9697 0.492477 6
    endloop
  endfacet
  facet normal -0.822985 0.568062 0
    outer loop
      vertex -18.7889 4.2841 -6
      vertex -18.2411 5.0777 6
      vertex -18.2411 5.0777 -6
    endloop
  endfacet
  facet normal -0.822985 0.568062 0
    outer loop
      vertex -18.2411 5.0777 6
      vertex -18.7889 4.2841 -6
      vertex -18.7889 4.2841 6
    endloop
  endfacet
  facet normal -0.790484 0.612483 0
    outer loop
      vertex -18.2411 5.0777 -6
      vertex -17.5295 5.99615 6
      vertex -17.5295 5.99615 -6
    endloop
  endfacet
  facet normal -0.790484 0.612483 0
    outer loop
      vertex -17.5295 5.99615 6
      vertex -18.2411 5.0777 -6
      vertex -18.2411 5.0777 6
    endloop
  endfacet
  facet normal -0.663124 0.748509 0
    outer loop
      vertex -15.8757 7.50339 -6
      vertex -16.5975 6.86394 6
      vertex -15.8757 7.50339 6
    endloop
  endfacet
  facet normal -0.663124 0.748509 0
    outer loop
      vertex -16.5975 6.86394 6
      vertex -15.8757 7.50339 -6
      vertex -16.5975 6.86394 -6
    endloop
  endfacet
  facet normal -0.576923 0.816798 0
    outer loop
      vertex -14.7375 8.30731 -6
      vertex -15.8757 7.50339 6
      vertex -14.7375 8.30731 6
    endloop
  endfacet
  facet normal -0.576923 0.816798 0
    outer loop
      vertex -15.8757 7.50339 6
      vertex -14.7375 8.30731 -6
      vertex -15.8757 7.50339 -6
    endloop
  endfacet
  facet normal -0.480891 0.876781 0
    outer loop
      vertex -13.4104 9.03522 -6
      vertex -14.7375 8.30731 6
      vertex -13.4104 9.03522 6
    endloop
  endfacet
  facet normal -0.480891 0.876781 0
    outer loop
      vertex -14.7375 8.30731 6
      vertex -13.4104 9.03522 -6
      vertex -14.7375 8.30731 -6
    endloop
  endfacet
  facet normal 0.843709 -0.536801 0
    outer loop
      vertex 18.4614 -4.74881 6
      vertex 19.0585 -3.8102 -6
      vertex 19.0585 -3.8102 6
    endloop
  endfacet
  facet normal 0.843709 -0.536801 0
    outer loop
      vertex 19.0585 -3.8102 -6
      vertex 18.4614 -4.74881 6
      vertex 18.4614 -4.74881 -6
    endloop
  endfacet
  facet normal 0.822985 -0.568062 0
    outer loop
      vertex 17.9136 -5.5424 6
      vertex 18.4614 -4.74881 -6
      vertex 18.4614 -4.74881 6
    endloop
  endfacet
  facet normal 0.822985 -0.568062 0
    outer loop
      vertex 18.4614 -4.74881 -6
      vertex 17.9136 -5.5424 6
      vertex 17.9136 -5.5424 -6
    endloop
  endfacet
  facet normal 0.735874 -0.677118 0
    outer loop
      vertex 17.8123 -5.65248 6
      vertex 17.9136 -5.5424 -6
      vertex 17.9136 -5.5424 6
    endloop
  endfacet
  facet normal 0.735874 -0.677118 0
    outer loop
      vertex 17.9136 -5.5424 -6
      vertex 17.8123 -5.65248 6
      vertex 17.8123 -5.65248 -6
    endloop
  endfacet
  facet normal -0.959493 0 0.281733
    outer loop
      vertex 1.47219 10.7403 -0.946121
      vertex 1.75 11.9399 0
      vertex 1.47219 11.9442 -0.946121
    endloop
  endfacet
  facet normal -0.959493 0 0.281733
    outer loop
      vertex 1.75 11.9399 0
      vertex 1.47219 10.7403 -0.946121
      vertex 1.75 10.7355 0
    endloop
  endfacet
  facet normal -0.142316 0 0.989821
    outer loop
      vertex -0.0105743 11.967 -1.6979
      vertex 0.726975 10.753 -1.59186
      vertex 0.726975 11.9557 -1.59186
    endloop
  endfacet
  facet normal -0.142316 -3.15611e-08 0.989821
    outer loop
      vertex -0.0105743 11.967 -1.6979
      vertex -0.0484314 10.7663 -1.70334
      vertex 0.726975 10.753 -1.59186
    endloop
  endfacet
  facet normal -0.142316 -2.29941e-08 0.989821
    outer loop
      vertex -0.24905 11.967 -1.73219
      vertex -0.0484314 10.7663 -1.70334
      vertex -0.0105743 11.967 -1.6979
    endloop
  endfacet
  facet normal -0.142316 0 0.989821
    outer loop
      vertex -0.0484314 10.7663 -1.70334
      vertex -0.24905 11.967 -1.73219
      vertex -0.24905 10.7663 -1.73219
    endloop
  endfacet
  facet normal -0.65486 0 0.75575
    outer loop
      vertex 0.726975 10.753 -1.59186
      vertex 1.47219 11.9442 -0.946121
      vertex 0.726975 11.9557 -1.59186
    endloop
  endfacet
  facet normal -0.65486 0 0.75575
    outer loop
      vertex 1.47219 11.9442 -0.946121
      vertex 0.726975 10.753 -1.59186
      vertex 1.47219 10.7403 -0.946121
    endloop
  endfacet
  facet normal -0.959493 0 -0.281733
    outer loop
      vertex 1.75 11.9399 0
      vertex 1.47219 10.7403 0.946121
      vertex 1.47219 11.9442 0.946121
    endloop
  endfacet
  facet normal -0.959493 0 -0.281733
    outer loop
      vertex 1.47219 10.7403 0.946121
      vertex 1.75 11.9399 0
      vertex 1.75 10.7355 0
    endloop
  endfacet
  facet normal 0.841253 0 0.540641
    outer loop
      vertex -1.67911 11.9344 -0.493032
      vertex -1.14601 10.7594 -1.32256
      vertex -1.14601 11.9591 -1.32256
    endloop
  endfacet
  facet normal 0.841253 0 0.540641
    outer loop
      vertex -1.14601 10.7594 -1.32256
      vertex -1.67911 11.9344 -0.493032
      vertex -1.67911 10.732 -0.493032
    endloop
  endfacet
  facet normal 1 -0 0
    outer loop
      vertex -1.67911 10.732 0.493032
      vertex -1.67911 11.9344 -0.493032
      vertex -1.67911 11.9344 0.493032
    endloop
  endfacet
  facet normal 1 0 0
    outer loop
      vertex -1.67911 11.9344 -0.493032
      vertex -1.67911 10.732 0.493032
      vertex -1.67911 10.732 -0.493032
    endloop
  endfacet
  facet normal 0.841253 0 -0.540641
    outer loop
      vertex -1.14601 10.7594 1.32256
      vertex -1.67911 11.9344 0.493032
      vertex -1.14601 11.9591 1.32256
    endloop
  endfacet
  facet normal 0.841253 0 -0.540641
    outer loop
      vertex -1.67911 11.9344 0.493032
      vertex -1.14601 10.7594 1.32256
      vertex -1.67911 10.732 0.493032
    endloop
  endfacet
  facet normal -0.142316 0 -0.989821
    outer loop
      vertex 0.726975 10.753 1.59186
      vertex -0.0105743 11.967 1.6979
      vertex 0.726975 11.9557 1.59186
    endloop
  endfacet
  facet normal -0.142316 -3.15611e-08 -0.989821
    outer loop
      vertex -0.0484314 10.7663 1.70334
      vertex -0.0105743 11.967 1.6979
      vertex 0.726975 10.753 1.59186
    endloop
  endfacet
  facet normal -0.142316 -0 -0.989821
    outer loop
      vertex -0.24905 11.967 1.73219
      vertex -0.0484314 10.7663 1.70334
      vertex -0.24905 10.7663 1.73219
    endloop
  endfacet
  facet normal -0.142316 -2.29941e-08 -0.989821
    outer loop
      vertex -0.0484314 10.7663 1.70334
      vertex -0.24905 11.967 1.73219
      vertex -0.0105743 11.967 1.6979
    endloop
  endfacet
  facet normal 0.415415 0 0.909632
    outer loop
      vertex -0.974838 11.967 -1.40073
      vertex -0.24905 10.7663 -1.73219
      vertex -0.24905 11.967 -1.73219
    endloop
  endfacet
  facet normal 0.415415 4.39289e-08 0.909632
    outer loop
      vertex -0.974838 11.967 -1.40073
      vertex -1.0127 10.7663 -1.38344
      vertex -0.24905 10.7663 -1.73219
    endloop
  endfacet
  facet normal 0.415415 3.93612e-08 0.909632
    outer loop
      vertex -1.14601 11.9591 -1.32256
      vertex -1.0127 10.7663 -1.38344
      vertex -0.974838 11.967 -1.40073
    endloop
  endfacet
  facet normal 0.415415 0 0.909632
    outer loop
      vertex -1.0127 10.7663 -1.38344
      vertex -1.14601 11.9591 -1.32256
      vertex -1.14601 10.7594 -1.32256
    endloop
  endfacet
  facet normal -0.65486 0 -0.75575
    outer loop
      vertex 0.726975 10.753 1.59186
      vertex 1.47219 11.9442 0.946121
      vertex 1.47219 10.7403 0.946121
    endloop
  endfacet
  facet normal -0.65486 0 -0.75575
    outer loop
      vertex 1.47219 11.9442 0.946121
      vertex 0.726975 10.753 1.59186
      vertex 0.726975 11.9557 1.59186
    endloop
  endfacet
  facet normal 0.415415 0 -0.909632
    outer loop
      vertex -0.24905 10.7663 1.73219
      vertex -0.974838 11.967 1.40073
      vertex -0.24905 11.967 1.73219
    endloop
  endfacet
  facet normal 0.415415 4.39289e-08 -0.909632
    outer loop
      vertex -1.0127 10.7663 1.38344
      vertex -0.974838 11.967 1.40073
      vertex -0.24905 10.7663 1.73219
    endloop
  endfacet
  facet normal 0.415415 0 -0.909632
    outer loop
      vertex -1.14601 11.9591 1.32256
      vertex -1.0127 10.7663 1.38344
      vertex -1.14601 10.7594 1.32256
    endloop
  endfacet
  facet normal 0.415415 3.93612e-08 -0.909632
    outer loop
      vertex -1.0127 10.7663 1.38344
      vertex -1.14601 11.9591 1.32256
      vertex -0.974838 11.967 1.40073
    endloop
  endfacet
  facet normal -0.984808 0 -0.173649
    outer loop
      vertex 2.75 -6.97083 0
      vertex 2.58415 -5.77081 0.940555
      vertex 2.75 -5.77081 0
    endloop
  endfacet
  facet normal -0.984808 -0 -0.173649
    outer loop
      vertex 2.58415 -5.77081 0.940555
      vertex 2.75 -6.97083 0
      vertex 2.58415 -6.97083 0.940555
    endloop
  endfacet
  facet normal -0.866026 0 -0.5
    outer loop
      vertex 2.58415 -6.97083 0.940555
      vertex 2.10662 -5.77081 1.76767
      vertex 2.58415 -5.77081 0.940555
    endloop
  endfacet
  facet normal -0.866026 -0 -0.5
    outer loop
      vertex 2.10662 -5.77081 1.76767
      vertex 2.58415 -6.97083 0.940555
      vertex 2.10662 -6.97083 1.76767
    endloop
  endfacet
  facet normal 0.984808 0 -0.173649
    outer loop
      vertex -2.58415 -6.97083 0.940555
      vertex -2.75 -5.77081 0
      vertex -2.58415 -5.77081 0.940555
    endloop
  endfacet
  facet normal 0.984808 0 -0.173649
    outer loop
      vertex -2.75 -5.77081 0
      vertex -2.58415 -6.97083 0.940555
      vertex -2.75 -6.97083 0
    endloop
  endfacet
  facet normal 0 0 -1
    outer loop
      vertex -0.477532 -6.97083 2.70822
      vertex 0.477532 -5.77081 2.70822
      vertex 0.477532 -6.97083 2.70822
    endloop
  endfacet
  facet normal -0 0 -1
    outer loop
      vertex 0.477532 -5.77081 2.70822
      vertex -0.477532 -6.97083 2.70822
      vertex -0.477532 -5.77081 2.70822
    endloop
  endfacet
  facet normal -0.342021 0 0.939692
    outer loop
      vertex 0.477532 -5.77081 -2.70822
      vertex 1.375 -6.97083 -2.38157
      vertex 1.375 -5.77081 -2.38157
    endloop
  endfacet
  facet normal -0.342021 0 0.939692
    outer loop
      vertex 1.375 -6.97083 -2.38157
      vertex 0.477532 -5.77081 -2.70822
      vertex 0.477532 -6.97083 -2.70822
    endloop
  endfacet
  facet normal -0.642787 0 -0.766045
    outer loop
      vertex 1.375 -6.97083 2.38157
      vertex 2.10662 -5.77081 1.76767
      vertex 2.10662 -6.97083 1.76767
    endloop
  endfacet
  facet normal -0.642787 0 -0.766045
    outer loop
      vertex 2.10662 -5.77081 1.76767
      vertex 1.375 -6.97083 2.38157
      vertex 1.375 -5.77081 2.38157
    endloop
  endfacet
  facet normal 0.642787 0 -0.766045
    outer loop
      vertex -2.10662 -6.97083 1.76767
      vertex -1.375 -5.77081 2.38157
      vertex -1.375 -6.97083 2.38157
    endloop
  endfacet
  facet normal 0.642787 0 -0.766045
    outer loop
      vertex -1.375 -5.77081 2.38157
      vertex -2.10662 -6.97083 1.76767
      vertex -2.10662 -5.77081 1.76767
    endloop
  endfacet
  facet normal 0.342021 0 -0.939692
    outer loop
      vertex -1.375 -6.97083 2.38157
      vertex -0.477532 -5.77081 2.70822
      vertex -0.477532 -6.97083 2.70822
    endloop
  endfacet
  facet normal 0.342021 0 -0.939692
    outer loop
      vertex -0.477532 -5.77081 2.70822
      vertex -1.375 -6.97083 2.38157
      vertex -1.375 -5.77081 2.38157
    endloop
  endfacet
  facet normal -0.642787 0 0.766045
    outer loop
      vertex 1.375 -5.77081 -2.38157
      vertex 2.10662 -6.97083 -1.76767
      vertex 2.10662 -5.77081 -1.76767
    endloop
  endfacet
  facet normal -0.642787 0 0.766045
    outer loop
      vertex 2.10662 -6.97083 -1.76767
      vertex 1.375 -5.77081 -2.38157
      vertex 1.375 -6.97083 -2.38157
    endloop
  endfacet
  facet normal -0.34202 0 -0.939693
    outer loop
      vertex 0.477532 -6.97083 2.70822
      vertex 1.375 -5.77081 2.38157
      vertex 1.375 -6.97083 2.38157
    endloop
  endfacet
  facet normal -0.34202 0 -0.939693
    outer loop
      vertex 1.375 -5.77081 2.38157
      vertex 0.477532 -6.97083 2.70822
      vertex 0.477532 -5.77081 2.70822
    endloop
  endfacet
  facet normal 0.866026 0 -0.5
    outer loop
      vertex -2.10662 -6.97083 1.76767
      vertex -2.58415 -5.77081 0.940555
      vertex -2.10662 -5.77081 1.76767
    endloop
  endfacet
  facet normal 0.866026 0 -0.5
    outer loop
      vertex -2.58415 -5.77081 0.940555
      vertex -2.10662 -6.97083 1.76767
      vertex -2.58415 -6.97083 0.940555
    endloop
  endfacet
  facet normal 0.866026 -0 0.5
    outer loop
      vertex -2.58415 -6.97083 -0.940555
      vertex -2.10662 -5.77081 -1.76767
      vertex -2.58415 -5.77081 -0.940555
    endloop
  endfacet
  facet normal 0.866026 0 0.5
    outer loop
      vertex -2.10662 -5.77081 -1.76767
      vertex -2.58415 -6.97083 -0.940555
      vertex -2.10662 -6.97083 -1.76767
    endloop
  endfacet
  facet normal 0.984808 -0 0.173649
    outer loop
      vertex -2.75 -6.97083 0
      vertex -2.58415 -5.77081 -0.940555
      vertex -2.75 -5.77081 0
    endloop
  endfacet
  facet normal 0.984808 0 0.173649
    outer loop
      vertex -2.58415 -5.77081 -0.940555
      vertex -2.75 -6.97083 0
      vertex -2.58415 -6.97083 -0.940555
    endloop
  endfacet
  facet normal -0 0 1
    outer loop
      vertex -0.477532 -5.77081 -2.70822
      vertex 0.477532 -6.97083 -2.70822
      vertex 0.477532 -5.77081 -2.70822
    endloop
  endfacet
  facet normal 0 0 1
    outer loop
      vertex 0.477532 -6.97083 -2.70822
      vertex -0.477532 -5.77081 -2.70822
      vertex -0.477532 -6.97083 -2.70822
    endloop
  endfacet
  facet normal 0.642787 0 0.766045
    outer loop
      vertex -2.10662 -5.77081 -1.76767
      vertex -1.375 -6.97083 -2.38157
      vertex -1.375 -5.77081 -2.38157
    endloop
  endfacet
  facet normal 0.642787 0 0.766045
    outer loop
      vertex -1.375 -6.97083 -2.38157
      vertex -2.10662 -5.77081 -1.76767
      vertex -2.10662 -6.97083 -1.76767
    endloop
  endfacet
  facet normal 0.34202 0 0.939693
    outer loop
      vertex -1.375 -5.77081 -2.38157
      vertex -0.477532 -6.97083 -2.70822
      vertex -0.477532 -5.77081 -2.70822
    endloop
  endfacet
  facet normal 0.34202 0 0.939693
    outer loop
      vertex -0.477532 -6.97083 -2.70822
      vertex -1.375 -5.77081 -2.38157
      vertex -1.375 -6.97083 -2.38157
    endloop
  endfacet
  facet normal -0.866026 0 0.5
    outer loop
      vertex 2.10662 -6.97083 -1.76767
      vertex 2.58415 -5.77081 -0.940555
      vertex 2.10662 -5.77081 -1.76767
    endloop
  endfacet
  facet normal -0.866026 0 0.5
    outer loop
      vertex 2.58415 -5.77081 -0.940555
      vertex 2.10662 -6.97083 -1.76767
      vertex 2.58415 -6.97083 -0.940555
    endloop
  endfacet
  facet normal -0.984808 0 0.173649
    outer loop
      vertex 2.58415 -6.97083 -0.940555
      vertex 2.75 -5.77081 0
      vertex 2.58415 -5.77081 -0.940555
    endloop
  endfacet
  facet normal -0.984808 0 0.173649
    outer loop
      vertex 2.75 -5.77081 0
      vertex 2.58415 -6.97083 -0.940555
      vertex 2.75 -6.97083 0
    endloop
  endfacet
  facet normal 0.992708 0.120546 0
    outer loop
      vertex -18.3723 -1.45361 6
      vertex -18.4885 -0.496353 -6
      vertex -18.4885 -0.496353 6
    endloop
  endfacet
  facet normal 0.992708 0.120546 0
    outer loop
      vertex -18.4885 -0.496353 -6
      vertex -18.3723 -1.45361 6
      vertex -18.3723 -1.45361 -6
    endloop
  endfacet
  facet normal 0.953962 0.299926 0
    outer loop
      vertex -18.0635 -2.43578 6
      vertex -18.3723 -1.45361 -6
      vertex -18.3723 -1.45361 6
    endloop
  endfacet
  facet normal 0.953962 0.299926 0
    outer loop
      vertex -18.3723 -1.45361 -6
      vertex -18.0635 -2.43578 6
      vertex -18.0635 -2.43578 -6
    endloop
  endfacet
  facet normal 0.663124 0.748509 -0
    outer loop
      vertex -16.2453 -5.09192 -6
      vertex -16.9671 -4.45247 6
      vertex -16.2453 -5.09192 6
    endloop
  endfacet
  facet normal 0.663124 0.748509 0
    outer loop
      vertex -16.9671 -4.45247 6
      vertex -16.2453 -5.09192 -6
      vertex -16.9671 -4.45247 -6
    endloop
  endfacet
  facet normal 1 -0 0
    outer loop
      vertex -18.4885 -0.496353 6
      vertex -18.4885 0.496353 -6
      vertex -18.4885 0.496353 6
    endloop
  endfacet
  facet normal 1 0 0
    outer loop
      vertex -18.4885 0.496353 -6
      vertex -18.4885 -0.496353 6
      vertex -18.4885 -0.496353 -6
    endloop
  endfacet
  facet normal -0.239317 0.970941 0
    outer loop
      vertex 15.4054 -5.54004 -6
      vertex 14.4691 -5.77081 6
      vertex 15.4054 -5.54004 6
    endloop
  endfacet
  facet normal -0.239317 0.970941 0
    outer loop
      vertex 14.4691 -5.77081 6
      vertex 15.4054 -5.54004 -6
      vertex 14.4691 -5.77081 -6
    endloop
  endfacet
  facet normal 0 1 0
    outer loop
      vertex 14.4691 -5.77081 6
      vertex 0.477532 -5.77081 2.70822
      vertex -14.4552 -5.77081 6
    endloop
  endfacet
  facet normal 0 1 0
    outer loop
      vertex 14.4691 -5.77081 6
      vertex 1.375 -5.77081 2.38157
      vertex 0.477532 -5.77081 2.70822
    endloop
  endfacet
  facet normal 0 1 0
    outer loop
      vertex 14.4691 -5.77081 6
      vertex 2.10662 -5.77081 1.76767
      vertex 1.375 -5.77081 2.38157
    endloop
  endfacet
  facet normal 0 1 0
    outer loop
      vertex 14.4691 -5.77081 6
      vertex 2.58415 -5.77081 0.940555
      vertex 2.10662 -5.77081 1.76767
    endloop
  endfacet
  facet normal 0 1 0
    outer loop
      vertex 14.4691 -5.77081 6
      vertex 2.75 -5.77081 0
      vertex 2.58415 -5.77081 0.940555
    endloop
  endfacet
  facet normal 0 1 -0
    outer loop
      vertex 14.4691 -5.77081 -6
      vertex 2.75 -5.77081 0
      vertex 14.4691 -5.77081 6
    endloop
  endfacet
  facet normal 0 1 0
    outer loop
      vertex 2.75 -5.77081 0
      vertex 14.4691 -5.77081 -6
      vertex 2.58415 -5.77081 -0.940555
    endloop
  endfacet
  facet normal 0 1 0
    outer loop
      vertex 2.58415 -5.77081 -0.940555
      vertex 14.4691 -5.77081 -6
      vertex 2.10662 -5.77081 -1.76767
    endloop
  endfacet
  facet normal 0 1 0
    outer loop
      vertex 0.477532 -5.77081 -2.70822
      vertex 14.4691 -5.77081 -6
      vertex -0.477532 -5.77081 -2.70822
    endloop
  endfacet
  facet normal 0 1 0
    outer loop
      vertex 1.375 -5.77081 -2.38157
      vertex 14.4691 -5.77081 -6
      vertex 0.477532 -5.77081 -2.70822
    endloop
  endfacet
  facet normal 0 1 0
    outer loop
      vertex 2.10662 -5.77081 -1.76767
      vertex 14.4691 -5.77081 -6
      vertex 1.375 -5.77081 -2.38157
    endloop
  endfacet
  facet normal 0 1 -0
    outer loop
      vertex -0.477532 -5.77081 2.70822
      vertex -14.4552 -5.77081 6
      vertex 0.477532 -5.77081 2.70822
    endloop
  endfacet
  facet normal 0 1 -0
    outer loop
      vertex -1.375 -5.77081 2.38157
      vertex -14.4552 -5.77081 6
      vertex -0.477532 -5.77081 2.70822
    endloop
  endfacet
  facet normal 0 1 -0
    outer loop
      vertex -2.10662 -5.77081 1.76767
      vertex -14.4552 -5.77081 6
      vertex -1.375 -5.77081 2.38157
    endloop
  endfacet
  facet normal 0 1 -0
    outer loop
      vertex -2.58415 -5.77081 0.940555
      vertex -14.4552 -5.77081 6
      vertex -2.10662 -5.77081 1.76767
    endloop
  endfacet
  facet normal 0 1 -0
    outer loop
      vertex -2.75 -5.77081 0
      vertex -14.4552 -5.77081 6
      vertex -2.58415 -5.77081 0.940555
    endloop
  endfacet
  facet normal 0 1 0
    outer loop
      vertex -14.4552 -5.77081 -6
      vertex -2.75 -5.77081 0
      vertex -2.58415 -5.77081 -0.940555
    endloop
  endfacet
  facet normal 0 1 0
    outer loop
      vertex -14.4552 -5.77081 -6
      vertex -2.58415 -5.77081 -0.940555
      vertex -2.10662 -5.77081 -1.76767
    endloop
  endfacet
  facet normal 0 1 0
    outer loop
      vertex -14.4552 -5.77081 -6
      vertex -2.10662 -5.77081 -1.76767
      vertex -1.375 -5.77081 -2.38157
    endloop
  endfacet
  facet normal 0 1 0
    outer loop
      vertex -2.75 -5.77081 0
      vertex -14.4552 -5.77081 -6
      vertex -14.4552 -5.77081 6
    endloop
  endfacet
  facet normal 0 1 0
    outer loop
      vertex -0.477532 -5.77081 -2.70822
      vertex -14.4552 -5.77081 -6
      vertex -1.375 -5.77081 -2.38157
    endloop
  endfacet
  facet normal 0 1 0
    outer loop
      vertex -14.4552 -5.77081 -6
      vertex -0.477532 -5.77081 -2.70822
      vertex 14.4691 -5.77081 -6
    endloop
  endfacet
  facet normal 0.935014 0.354612 0
    outer loop
      vertex -17.7215 -3.3374 6
      vertex -18.0635 -2.43578 -6
      vertex -18.0635 -2.43578 6
    endloop
  endfacet
  facet normal 0.935014 0.354612 0
    outer loop
      vertex -18.0635 -2.43578 -6
      vertex -17.7215 -3.3374 6
      vertex -17.7215 -3.3374 -6
    endloop
  endfacet
  facet normal 0.464717 0.885459 -0
    outer loop
      vertex -15.3915 -5.54004 -6
      vertex -16.2453 -5.09192 6
      vertex -15.3915 -5.54004 6
    endloop
  endfacet
  facet normal 0.464717 0.885459 0
    outer loop
      vertex -16.2453 -5.09192 6
      vertex -15.3915 -5.54004 -6
      vertex -16.2453 -5.09192 -6
    endloop
  endfacet
  facet normal 0.195091 -0.980785 0
    outer loop
      vertex -7.1246 10.0183 -6
      vertex -5.1727 10.4066 6
      vertex -7.1246 10.0183 6
    endloop
  endfacet
  facet normal 0.195091 -0.980785 0
    outer loop
      vertex -5.1727 10.4066 6
      vertex -7.1246 10.0183 -6
      vertex -5.1727 10.4066 -6
    endloop
  endfacet
  facet normal 0.841228 0.540681 0
    outer loop
      vertex -17.5149 -3.65887 6
      vertex -17.7215 -3.3374 -6
      vertex -17.7215 -3.3374 6
    endloop
  endfacet
  facet normal 0.841228 0.540681 0
    outer loop
      vertex -17.7215 -3.3374 -6
      vertex -17.5149 -3.65887 6
      vertex -17.5149 -3.65887 -6
    endloop
  endfacet
  facet normal 0.822985 0.568062 0
    outer loop
      vertex -16.9671 -4.45247 6
      vertex -17.5149 -3.65887 -6
      vertex -17.5149 -3.65887 6
    endloop
  endfacet
  facet normal 0.822985 0.568062 0
    outer loop
      vertex -17.5149 -3.65887 -6
      vertex -16.9671 -4.45247 6
      vertex -16.9671 -4.45247 -6
    endloop
  endfacet
  facet normal 0.239317 0.970941 -0
    outer loop
      vertex -14.4552 -5.77081 -6
      vertex -15.3915 -5.54004 6
      vertex -14.4552 -5.77081 6
    endloop
  endfacet
  facet normal 0.239317 0.970941 0
    outer loop
      vertex -15.3915 -5.54004 6
      vertex -14.4552 -5.77081 -6
      vertex -15.3915 -5.54004 -6
    endloop
  endfacet
  facet normal 0.663124 -0.748509 0
    outer loop
      vertex -15.6625 5.98051 -6
      vertex -14.9407 6.61996 6
      vertex -15.6625 5.98051 6
    endloop
  endfacet
  facet normal 0.663124 -0.748509 0
    outer loop
      vertex -14.9407 6.61996 6
      vertex -15.6625 5.98051 -6
      vertex -14.9407 6.61996 -6
    endloop
  endfacet
  facet normal -0.992708 0.120546 0
    outer loop
      vertex 18.411 -0.95726 -6
      vertex 18.5273 0 6
      vertex 18.5273 0 -6
    endloop
  endfacet
  facet normal -0.992708 0.120546 0
    outer loop
      vertex 18.5273 0 6
      vertex 18.411 -0.95726 -6
      vertex 18.411 -0.95726 6
    endloop
  endfacet
  facet normal -0.987994 0.154489 0
    outer loop
      vertex 18.2562 -1.94734 -6
      vertex 18.411 -0.95726 6
      vertex 18.411 -0.95726 -6
    endloop
  endfacet
  facet normal -0.987994 0.154489 0
    outer loop
      vertex 18.411 -0.95726 6
      vertex 18.2562 -1.94734 -6
      vertex 18.2562 -1.94734 6
    endloop
  endfacet
  facet normal 0.935014 -0.354612 0
    outer loop
      vertex -18.0635 2.43578 6
      vertex -17.7215 3.3374 -6
      vertex -17.7215 3.3374 6
    endloop
  endfacet
  facet normal 0.935014 -0.354612 0
    outer loop
      vertex -17.7215 3.3374 -6
      vertex -18.0635 2.43578 6
      vertex -18.0635 2.43578 -6
    endloop
  endfacet
  facet normal 0 -1 0
    outer loop
      vertex -1.0127 10.7663 6
      vertex -0.24905 10.7663 1.73219
      vertex -0.0484314 10.7663 6
    endloop
  endfacet
  facet normal -0 -1 0
    outer loop
      vertex -0.24905 10.7663 1.73219
      vertex -1.0127 10.7663 6
      vertex -1.0127 10.7663 1.38344
    endloop
  endfacet
  facet normal 0 -1 -0
    outer loop
      vertex -0.0484314 10.7663 6
      vertex -0.24905 10.7663 1.73219
      vertex -0.0484314 10.7663 1.70334
    endloop
  endfacet
  facet normal 0 -1 0
    outer loop
      vertex -1.0127 10.7663 -1.38344
      vertex -1.0127 10.7663 -6
      vertex -0.24905 10.7663 -1.73219
    endloop
  endfacet
  facet normal 0 -1 0
    outer loop
      vertex -0.0484314 10.7663 -6
      vertex -0.24905 10.7663 -1.73219
      vertex -1.0127 10.7663 -6
    endloop
  endfacet
  facet normal 0 -1 0
    outer loop
      vertex -0.24905 10.7663 -1.73219
      vertex -0.0484314 10.7663 -6
      vertex -0.0484314 10.7663 -1.70334
    endloop
  endfacet
  facet normal -0.822985 -0.568062 0
    outer loop
      vertex 17.4531 3.81795 -6
      vertex 16.9053 4.61154 6
      vertex 16.9053 4.61154 -6
    endloop
  endfacet
  facet normal -0.822985 -0.568062 0
    outer loop
      vertex 16.9053 4.61154 6
      vertex 17.4531 3.81795 -6
      vertex 17.4531 3.81795 6
    endloop
  endfacet
  facet normal -0.987994 -0.154489 0
    outer loop
      vertex 18.411 0.95726 -6
      vertex 18.2562 1.94734 6
      vertex 18.2562 1.94734 -6
    endloop
  endfacet
  facet normal -0.987994 -0.154489 0
    outer loop
      vertex 18.2562 1.94734 6
      vertex 18.411 0.95726 -6
      vertex 18.411 0.95726 6
    endloop
  endfacet
  facet normal 0.992708 -0.120546 0
    outer loop
      vertex -18.4885 0.496353 6
      vertex -18.3723 1.45361 -6
      vertex -18.3723 1.45361 6
    endloop
  endfacet
  facet normal 0.992708 -0.120546 0
    outer loop
      vertex -18.3723 1.45361 -6
      vertex -18.4885 0.496353 6
      vertex -18.4885 0.496353 -6
    endloop
  endfacet
  facet normal 0.953962 -0.299926 0
    outer loop
      vertex -18.3723 1.45361 6
      vertex -18.0635 2.43578 -6
      vertex -18.0635 2.43578 6
    endloop
  endfacet
  facet normal 0.953962 -0.299926 0
    outer loop
      vertex -18.0635 2.43578 -6
      vertex -18.3723 1.45361 6
      vertex -18.3723 1.45361 -6
    endloop
  endfacet
  facet normal 0.239317 -0.970941 0
    outer loop
      vertex -8.06088 9.78757 -6
      vertex -7.1246 10.0183 6
      vertex -8.06088 9.78757 6
    endloop
  endfacet
  facet normal 0.239317 -0.970941 0
    outer loop
      vertex -7.1246 10.0183 6
      vertex -8.06088 9.78757 -6
      vertex -7.1246 10.0183 -6
    endloop
  endfacet
  facet normal 0.362977 -0.931798 0
    outer loop
      vertex -11.5014 8.63539 -6
      vertex -9.87123 9.27042 6
      vertex -11.5014 8.63539 6
    endloop
  endfacet
  facet normal 0.362977 -0.931798 0
    outer loop
      vertex -9.87123 9.27042 6
      vertex -11.5014 8.63539 -6
      vertex -9.87123 9.27042 -6
    endloop
  endfacet
  facet normal -0.017103 -0.999854 0
    outer loop
      vertex 0.726975 10.753 1.59186
      vertex -0.0484314 10.7663 6
      vertex -0.0484314 10.7663 1.70334
    endloop
  endfacet
  facet normal -0.0171036 -0.999854 -1.05999e-07
    outer loop
      vertex -0.0484314 10.7663 6
      vertex 0.726975 10.753 1.59186
      vertex 2.07098 10.73 6
    endloop
  endfacet
  facet normal -0.0171037 -0.999854 -7.76843e-08
    outer loop
      vertex 1.47219 10.7403 0.946121
      vertex 2.07098 10.73 6
      vertex 0.726975 10.753 1.59186
    endloop
  endfacet
  facet normal -0.0171062 -0.999854 2.16513e-07
    outer loop
      vertex 1.75 10.7355 0
      vertex 2.07098 10.73 6
      vertex 1.47219 10.7403 0.946121
    endloop
  endfacet
  facet normal -0.017103 -0.999854 0
    outer loop
      vertex -0.0484314 10.7663 -6
      vertex 0.726975 10.753 -1.59186
      vertex -0.0484314 10.7663 -1.70334
    endloop
  endfacet
  facet normal -0.0171036 -0.999854 1.05999e-07
    outer loop
      vertex 2.07098 10.73 -6
      vertex 0.726975 10.753 -1.59186
      vertex -0.0484314 10.7663 -6
    endloop
  endfacet
  facet normal -0.0171021 -0.999854 0
    outer loop
      vertex 1.75 10.7355 0
      vertex 2.07098 10.73 -6
      vertex 2.07098 10.73 6
    endloop
  endfacet
  facet normal -0.0171062 -0.999854 -2.16513e-07
    outer loop
      vertex 1.47219 10.7403 -0.946121
      vertex 2.07098 10.73 -6
      vertex 1.75 10.7355 0
    endloop
  endfacet
  facet normal -0.0171037 -0.999854 7.76843e-08
    outer loop
      vertex 0.726975 10.753 -1.59186
      vertex 2.07098 10.73 -6
      vertex 1.47219 10.7403 -0.946121
    endloop
  endfacet
  facet normal 0.121469 -0.992595 0
    outer loop
      vertex -5.1727 10.4066 -6
      vertex -3.12082 10.6577 6
      vertex -5.1727 10.4066 6
    endloop
  endfacet
  facet normal 0.121469 -0.992595 0
    outer loop
      vertex -3.12082 10.6577 6
      vertex -5.1727 10.4066 -6
      vertex -3.12082 10.6577 -6
    endloop
  endfacet
  facet normal -0.464717 -0.885459 0
    outer loop
      vertex 12.2379 8.27782 -6
      vertex 13.0918 7.8297 6
      vertex 12.2379 8.27782 6
    endloop
  endfacet
  facet normal -0.464717 -0.885459 -0
    outer loop
      vertex 13.0918 7.8297 6
      vertex 12.2379 8.27782 -6
      vertex 13.0918 7.8297 -6
    endloop
  endfacet
  facet normal -0.317556 -0.948239 0
    outer loop
      vertex 8.98625 9.54448 -6
      vertex 10.7111 8.96684 6
      vertex 8.98625 9.54448 6
    endloop
  endfacet
  facet normal -0.317556 -0.948239 -0
    outer loop
      vertex 10.7111 8.96684 6
      vertex 8.98625 9.54448 -6
      vertex 10.7111 8.96684 -6
    endloop
  endfacet
  facet normal -0.233976 -0.972242 0
    outer loop
      vertex 6.1638 10.2292 -6
      vertex 8.04997 9.77525 6
      vertex 6.1638 10.2292 6
    endloop
  endfacet
  facet normal -0.233976 -0.972242 -0
    outer loop
      vertex 8.04997 9.77525 6
      vertex 6.1638 10.2292 -6
      vertex 8.04997 9.77525 -6
    endloop
  endfacet
  facet normal -0.663124 0.748509 0
    outer loop
      vertex 16.981 -4.45247 -6
      vertex 16.2593 -5.09192 6
      vertex 16.981 -4.45247 6
    endloop
  endfacet
  facet normal -0.663124 0.748509 0
    outer loop
      vertex 16.2593 -5.09192 6
      vertex 16.981 -4.45247 -6
      vertex 16.2593 -5.09192 -6
    endloop
  endfacet
  facet normal -0.935014 0.354612 0
    outer loop
      vertex 17.9143 -2.84897 -6
      vertex 18.2562 -1.94734 6
      vertex 18.2562 -1.94734 -6
    endloop
  endfacet
  facet normal -0.935014 0.354612 0
    outer loop
      vertex 18.2562 -1.94734 6
      vertex 17.9143 -2.84897 -6
      vertex 17.9143 -2.84897 6
    endloop
  endfacet
  facet normal 0.706579 -0.707634 0
    outer loop
      vertex -16.5627 5.08165 -6
      vertex -15.6625 5.98051 6
      vertex -16.5627 5.08165 6
    endloop
  endfacet
  facet normal 0.706579 -0.707634 0
    outer loop
      vertex -15.6625 5.98051 6
      vertex -16.5627 5.08165 -6
      vertex -15.6625 5.98051 -6
    endloop
  endfacet
  facet normal 0.841223 -0.540688 0
    outer loop
      vertex -17.7215 3.3374 6
      vertex -17.1105 4.28806 -6
      vertex -17.1105 4.28806 6
    endloop
  endfacet
  facet normal 0.841223 -0.540688 0
    outer loop
      vertex -17.1105 4.28806 -6
      vertex -17.7215 3.3374 6
      vertex -17.7215 3.3374 -6
    endloop
  endfacet
  facet normal 0.822985 -0.568062 0
    outer loop
      vertex -17.1105 4.28806 6
      vertex -16.5627 5.08165 -6
      vertex -16.5627 5.08165 6
    endloop
  endfacet
  facet normal 0.822985 -0.568062 0
    outer loop
      vertex -16.5627 5.08165 -6
      vertex -17.1105 4.28806 6
      vertex -17.1105 4.28806 -6
    endloop
  endfacet
  facet normal 0.577572 -0.81634 0
    outer loop
      vertex -14.9407 6.61996 -6
      vertex -13.7705 7.44791 6
      vertex -14.9407 6.61996 6
    endloop
  endfacet
  facet normal 0.577572 -0.81634 0
    outer loop
      vertex -13.7705 7.44791 6
      vertex -14.9407 6.61996 -6
      vertex -13.7705 7.44791 -6
    endloop
  endfacet
  facet normal 0.274676 -0.961537 0
    outer loop
      vertex -9.87123 9.27042 -6
      vertex -8.06088 9.78757 6
      vertex -9.87123 9.27042 6
    endloop
  endfacet
  facet normal 0.274676 -0.961537 0
    outer loop
      vertex -8.06088 9.78757 6
      vertex -9.87123 9.27042 -6
      vertex -8.06088 9.78757 -6
    endloop
  endfacet
  facet normal -0.411338 -0.911483 0
    outer loop
      vertex 10.7111 8.96684 -6
      vertex 12.2379 8.27782 6
      vertex 10.7111 8.96684 6
    endloop
  endfacet
  facet normal -0.411338 -0.911483 -0
    outer loop
      vertex 12.2379 8.27782 6
      vertex 10.7111 8.96684 -6
      vertex 12.2379 8.27782 -6
    endloop
  endfacet
  facet normal -0.157694 -0.987488 0
    outer loop
      vertex 4.15656 10.5497 -6
      vertex 6.1638 10.2292 6
      vertex 4.15656 10.5497 6
    endloop
  endfacet
  facet normal -0.157694 -0.987488 -0
    outer loop
      vertex 6.1638 10.2292 6
      vertex 4.15656 10.5497 -6
      vertex 6.1638 10.2292 -6
    endloop
  endfacet
  facet normal -0.663124 -0.748509 0
    outer loop
      vertex 15.4259 6.17822 -6
      vertex 16.1477 5.53877 6
      vertex 15.4259 6.17822 6
    endloop
  endfacet
  facet normal -0.663124 -0.748509 -0
    outer loop
      vertex 16.1477 5.53877 6
      vertex 15.4259 6.17822 -6
      vertex 16.1477 5.53877 -6
    endloop
  endfacet
  facet normal -0.774372 -0.63273 0
    outer loop
      vertex 16.9053 4.61154 -6
      vertex 16.1477 5.53877 6
      vertex 16.1477 5.53877 -6
    endloop
  endfacet
  facet normal -0.774372 -0.63273 0
    outer loop
      vertex 16.1477 5.53877 6
      vertex 16.9053 4.61154 -6
      vertex 16.9053 4.61154 6
    endloop
  endfacet
  facet normal -0.992708 -0.120546 0
    outer loop
      vertex 18.5273 0 -6
      vertex 18.411 0.95726 6
      vertex 18.411 0.95726 -6
    endloop
  endfacet
  facet normal -0.992708 -0.120546 0
    outer loop
      vertex 18.411 0.95726 6
      vertex 18.5273 0 -6
      vertex 18.5273 0 6
    endloop
  endfacet
  facet normal -0.902963 -0.429719 0
    outer loop
      vertex 17.9143 2.84897 -6
      vertex 17.4531 3.81795 6
      vertex 17.4531 3.81795 -6
    endloop
  endfacet
  facet normal -0.902963 -0.429719 0
    outer loop
      vertex 17.4531 3.81795 6
      vertex 17.9143 2.84897 -6
      vertex 17.9143 2.84897 6
    endloop
  endfacet
  facet normal -0.822985 0.568062 0
    outer loop
      vertex 16.981 -4.45247 -6
      vertex 17.5288 -3.65887 6
      vertex 17.5288 -3.65887 -6
    endloop
  endfacet
  facet normal -0.822985 0.568062 0
    outer loop
      vertex 17.5288 -3.65887 6
      vertex 16.981 -4.45247 -6
      vertex 16.981 -4.45247 6
    endloop
  endfacet
  facet normal -0.464717 0.885459 0
    outer loop
      vertex 16.2593 -5.09192 -6
      vertex 15.4054 -5.54004 6
      vertex 16.2593 -5.09192 6
    endloop
  endfacet
  facet normal -0.464717 0.885459 0
    outer loop
      vertex 15.4054 -5.54004 6
      vertex 16.2593 -5.09192 -6
      vertex 15.4054 -5.54004 -6
    endloop
  endfacet
  facet normal -0.902961 0.429722 0
    outer loop
      vertex 17.5288 -3.65887 -6
      vertex 17.9143 -2.84897 6
      vertex 17.9143 -2.84897 -6
    endloop
  endfacet
  facet normal -0.902961 0.429722 0
    outer loop
      vertex 17.9143 -2.84897 6
      vertex 17.5288 -3.65887 -6
      vertex 17.5288 -3.65887 6
    endloop
  endfacet
  facet normal 0.464717 -0.885459 0
    outer loop
      vertex -13.7705 7.44791 -6
      vertex -12.9167 7.89603 6
      vertex -13.7705 7.44791 6
    endloop
  endfacet
  facet normal 0.464717 -0.885459 0
    outer loop
      vertex -12.9167 7.89603 6
      vertex -13.7705 7.44791 -6
      vertex -12.9167 7.89603 -6
    endloop
  endfacet
  facet normal 0.463037 -0.886339 0
    outer loop
      vertex -12.9167 7.89603 -6
      vertex -11.5014 8.63539 6
      vertex -12.9167 7.89603 6
    endloop
  endfacet
  facet normal 0.463037 -0.886339 0
    outer loop
      vertex -11.5014 8.63539 6
      vertex -12.9167 7.89603 -6
      vertex -11.5014 8.63539 -6
    endloop
  endfacet
  facet normal 0.0514381 -0.998676 0
    outer loop
      vertex -3.12082 10.6577 6
      vertex -1.0127 10.7663 1.38344
      vertex -1.0127 10.7663 6
    endloop
  endfacet
  facet normal 0.0514389 -0.998676 3.99063e-07
    outer loop
      vertex -3.12082 10.6577 6
      vertex -1.14601 10.7594 1.32256
      vertex -1.0127 10.7663 1.38344
    endloop
  endfacet
  facet normal 0.0514379 -0.998676 -4.843e-08
    outer loop
      vertex -3.12082 10.6577 6
      vertex -1.67911 10.732 0.493032
      vertex -1.14601 10.7594 1.32256
    endloop
  endfacet
  facet normal 0.0514381 -0.998676 0
    outer loop
      vertex -3.12082 10.6577 6
      vertex -1.67911 10.732 -0.493032
      vertex -1.67911 10.732 0.493032
    endloop
  endfacet
  facet normal 0.0514381 -0.998676 0
    outer loop
      vertex -3.12082 10.6577 -6
      vertex -1.67911 10.732 -0.493032
      vertex -3.12082 10.6577 6
    endloop
  endfacet
  facet normal 0.0514379 -0.998676 4.843e-08
    outer loop
      vertex -3.12082 10.6577 -6
      vertex -1.14601 10.7594 -1.32256
      vertex -1.67911 10.732 -0.493032
    endloop
  endfacet
  facet normal 0.0514389 -0.998676 -3.99063e-07
    outer loop
      vertex -3.12082 10.6577 -6
      vertex -1.0127 10.7663 -1.38344
      vertex -1.14601 10.7594 -1.32256
    endloop
  endfacet
  facet normal 0.0514381 -0.998676 0
    outer loop
      vertex -1.0127 10.7663 -1.38344
      vertex -3.12082 10.6577 -6
      vertex -1.0127 10.7663 -6
    endloop
  endfacet
  facet normal -0.239317 -0.970941 0
    outer loop
      vertex 8.04997 9.77525 -6
      vertex 8.98625 9.54448 6
      vertex 8.04997 9.77525 6
    endloop
  endfacet
  facet normal -0.239317 -0.970941 -0
    outer loop
      vertex 8.98625 9.54448 6
      vertex 8.04997 9.77525 -6
      vertex 8.98625 9.54448 -6
    endloop
  endfacet
  facet normal -0.0861361 -0.996283 0
    outer loop
      vertex 2.07098 10.73 -6
      vertex 4.15656 10.5497 6
      vertex 2.07098 10.73 6
    endloop
  endfacet
  facet normal -0.0861361 -0.996283 -0
    outer loop
      vertex 4.15656 10.5497 6
      vertex 2.07098 10.73 -6
      vertex 4.15656 10.5497 -6
    endloop
  endfacet
  facet normal -0.640507 -0.767952 0
    outer loop
      vertex 14.388 7.04395 -6
      vertex 15.4259 6.17822 6
      vertex 14.388 7.04395 6
    endloop
  endfacet
  facet normal -0.640507 -0.767952 -0
    outer loop
      vertex 15.4259 6.17822 6
      vertex 14.388 7.04395 -6
      vertex 15.4259 6.17822 -6
    endloop
  endfacet
  facet normal -0.518385 -0.855147 0
    outer loop
      vertex 13.0918 7.8297 -6
      vertex 14.388 7.04395 6
      vertex 13.0918 7.8297 6
    endloop
  endfacet
  facet normal -0.518385 -0.855147 -0
    outer loop
      vertex 14.388 7.04395 6
      vertex 13.0918 7.8297 -6
      vertex 14.388 7.04395 -6
    endloop
  endfacet
  facet normal -0.935014 -0.354612 0
    outer loop
      vertex 18.2562 1.94734 -6
      vertex 17.9143 2.84897 6
      vertex 17.9143 2.84897 -6
    endloop
  endfacet
  facet normal -0.935014 -0.354612 0
    outer loop
      vertex 17.9143 2.84897 6
      vertex 18.2562 1.94734 -6
      vertex 18.2562 1.94734 6
    endloop
  endfacet
endsolid OpenSCAD_Model
